<svg width="1584" height="396" viewBox="0 0 1584 396" fill="none" xmlns="http://www.w3.org/2000/svg">
<g clip-path="url(#clip0_363_398)">
<mask id="path-1-inside-1_363_398" fill="white">
<path d="M0 0H1584V396H0V0Z"/>
</mask>
<path d="M0 0H1584V396H0V0Z" fill="#3FACAF"/>
<path d="M1584 366H0V426H1584V366Z" fill="#EACA09" mask="url(#path-1-inside-1_363_398)"/>
<path d="M1769.26 -41.9533C1763.31 -81.1397 1747.68 -115.953 1722.26 -146.314C1703.16 -169.134 1680.4 -187.678 1655.11 -203.247C1653.89 -204.005 1652.55 -204.9 1651.19 -205.016C1649.91 -205.133 1648.12 -204.705 1647.28 -203.83C1645.65 -202.12 1644.35 -200.001 1643.24 -197.902C1636.86 -185.967 1630.59 -173.974 1624.25 -162.039C1569.46 -58.7669 1515.84 45.1276 1460.33 148.031C1433.96 196.936 1408.48 246.308 1382.61 295.485C1370.47 318.597 1359.43 342.233 1349.92 366.55C1336.36 401.324 1325.98 436.933 1321.28 474.098C1315.81 517.095 1319.9 558.944 1335.15 599.588C1337.02 604.564 1339.06 609.482 1341.43 614.225C1354.3 639.921 1370.91 662.955 1390.91 683.559C1405.16 698.254 1421.87 709.606 1439.44 720.005C1440.88 719.052 1442.43 718.528 1443.13 717.458C1444.98 714.64 1446.48 711.588 1448.05 708.595C1529.1 554.707 1610.14 400.818 1691.17 246.93C1693.19 243.081 1695.03 239.155 1696.92 235.228C1699.83 229.125 1702.48 222.905 1705.61 216.918C1718.84 191.649 1731.13 165.933 1741.43 139.323C1755.09 104.063 1765.66 67.9864 1770 30.2578C1772.78 6.17447 1772.91 -17.8894 1769.26 -41.9533Z" fill="white"/>
<path d="M1330.74 192.485C1336.9 199.56 1348.93 199.541 1355.13 192.368C1357.31 189.841 1359.08 186.906 1360.69 183.952C1375.99 156.02 1391.26 128.068 1406.42 100.039C1408.71 95.8212 1410.66 91.3699 1412.31 86.841C1416.06 76.539 1416.18 66.1203 1412.95 55.5851C1410.83 48.607 1407.88 42.0565 1404.46 35.6615C1389.69 7.98216 1374.97 -19.7166 1360.28 -47.4347C1347.63 -71.3042 1335.05 -95.232 1322.38 -119.102C1320.13 -123.358 1317.68 -127.537 1315.02 -131.542C1311.65 -136.595 1306.89 -139.842 1300.79 -140.541C1295.52 -141.144 1290.24 -141.669 1284.93 -141.708C1267.56 -141.844 1250.18 -141.766 1232.81 -141.766V-141.785C1215.92 -141.785 1199.03 -141.785 1182.14 -141.785C1178.76 -141.785 1175.36 -141.96 1172.01 -141.572C1169.19 -141.241 1166.32 -140.522 1163.69 -139.433C1159.87 -137.859 1157.71 -134.691 1157.11 -130.57C1156.54 -126.663 1156.93 -122.834 1158.74 -119.276C1160.7 -115.408 1162.78 -111.579 1164.86 -107.789C1216.19 -14.2934 1267.52 79.2019 1318.83 172.697C1321.14 176.935 1323.35 181.23 1325.8 185.39C1327.28 187.859 1328.85 190.327 1330.74 192.485Z" fill="white"/>
<path d="M1079.52 169.57C1079.41 169.181 1079.36 168.701 1079.36 168.122C1079.36 167.543 1079.67 167.063 1080.3 166.675C1084.55 163.681 1087.9 159.964 1090.34 155.523C1092.78 151.082 1093.99 146.352 1093.99 141.325C1093.99 135.437 1092.41 130.029 1089.25 125.101C1086.08 120.173 1081.8 116.265 1076.41 113.37C1071.01 110.475 1065.09 109.028 1058.66 109.028H1026.43C1025.6 109.028 1024.9 109.297 1024.33 109.824C1023.76 110.357 1023.48 111.008 1023.48 111.778V135.101C1023.48 136.068 1023.87 136.91 1024.65 137.634C1025.42 138.358 1026.33 138.72 1027.37 138.72H1037.64C1038.78 138.72 1039.71 138.358 1040.44 137.634C1041.16 136.91 1041.53 136.068 1041.53 135.101V131.483C1041.53 130.515 1041.92 129.673 1042.7 128.95C1043.48 128.226 1044.44 127.864 1045.58 127.864H1058.65C1062.8 127.864 1066.3 129.167 1069.16 131.772C1072.01 134.377 1073.44 137.568 1073.44 141.332C1073.44 145.003 1072.01 148.141 1069.16 150.747C1066.3 153.352 1062.8 154.655 1058.65 154.655H1026.43C1025.59 154.655 1024.89 154.924 1024.33 155.451C1023.75 155.984 1023.47 156.635 1023.47 157.405V207.959C1023.47 208.736 1023.75 209.361 1024.33 209.841C1024.9 210.328 1025.6 210.565 1026.43 210.565H1038.57C1039.4 210.565 1040.1 210.328 1040.67 209.841C1041.23 209.361 1041.52 208.729 1041.52 207.959V176.09C1041.52 175.03 1041.86 174.326 1042.54 173.991C1043.21 173.655 1044.17 173.484 1045.41 173.484H1058.64C1060.2 173.484 1061.24 173.583 1061.75 173.774C1062.27 173.971 1062.69 174.353 1063 174.932L1079.19 208.828C1079.6 209.604 1080.1 210.084 1080.67 210.275C1081.24 210.473 1082.1 210.565 1083.24 210.565H1096C1097.45 210.565 1098.18 210.032 1098.18 208.973C1098.18 208.394 1097.97 207.769 1097.56 207.091L1079.52 169.57Z" fill="white"/>
<path d="M1015.03 192.689H961.445C960.717 192.689 960.045 192.4 959.423 191.821C958.801 191.242 958.49 190.617 958.49 189.939V174.142C958.49 172.116 959.685 171.096 962.075 171.096H1001.8C1002.53 171.096 1003.15 170.879 1003.67 170.445C1004.18 170.011 1004.44 169.458 1004.44 168.78V156.313C1004.44 155.635 1004.18 155.082 1003.67 154.648C1003.14 154.214 1002.52 153.997 1001.8 153.997H962.541C959.84 153.997 958.49 153.082 958.49 151.24V140.806C958.49 140.036 958.228 139.404 957.712 138.924C957.188 138.444 956.517 138.2 955.689 138.2H942.445C941.717 138.2 941.066 138.444 940.501 138.924C939.928 139.411 939.645 140.036 939.645 140.806V207.769C939.645 208.446 939.928 209.052 940.501 209.578C941.073 210.111 941.717 210.374 942.445 210.374H1015.03C1015.86 210.374 1016.54 210.111 1017.05 209.578C1017.57 209.052 1017.83 208.446 1017.83 207.769V195.301C1017.83 194.531 1017.57 193.9 1017.05 193.42C1016.54 192.933 1015.86 192.689 1015.03 192.689Z" fill="white"/>
<path d="M942.435 126.746H1014.72C1015.54 126.746 1016.24 126.457 1016.82 125.878C1017.39 125.299 1017.67 124.667 1017.67 123.996V111.529C1017.67 110.851 1017.38 110.246 1016.82 109.719C1016.24 109.193 1015.54 108.923 1014.72 108.923H942.435C941.707 108.923 941.057 109.167 940.491 109.647C939.918 110.134 939.635 110.759 939.635 111.529V123.996C939.635 124.773 939.918 125.424 940.491 125.95C941.057 126.477 941.707 126.746 942.435 126.746Z" fill="white"/>
<path d="M762.603 109.541H747.111C746.389 109.541 745.718 109.804 745.095 110.337C744.473 110.863 744.169 111.515 744.169 112.284V207.986C744.169 208.657 744.452 209.262 745.025 209.788C745.59 210.315 746.29 210.584 747.118 210.584H762.61C763.438 210.584 764.11 210.321 764.626 209.788C765.142 209.262 765.404 208.663 765.404 207.986V112.278C765.404 111.508 765.121 110.863 764.555 110.33C763.968 109.811 763.325 109.541 762.603 109.541Z" fill="white"/>
<path d="M836.824 135.365H791.618C790.416 135.542 787.75 136.22 787.206 138.799V154.306C787.22 154.438 787.234 154.576 787.234 154.714V168.202H787.206V208.111C787.206 208.749 787.474 209.328 788.019 209.828C788.556 210.335 789.221 210.585 790.013 210.585H804.763C805.548 210.585 806.184 210.335 806.679 209.828C807.167 209.328 807.415 208.756 807.415 208.111V172.557H807.436V154.714C807.436 153.905 807.761 153.194 808.412 152.563C809.062 151.938 809.847 151.622 810.781 151.622H836.824C837.29 151.622 837.708 151.444 838.075 151.082C838.443 150.727 838.634 150.273 838.634 149.74V137.24C838.634 136.7 838.45 136.253 838.075 135.898C837.708 135.542 837.283 135.365 836.824 135.365Z" fill="white"/>
<path d="M733.987 192.295H697.804C697.005 192.295 696.312 191.986 695.711 191.361C695.11 190.736 694.813 190.045 694.813 189.275V112.693C694.813 111.923 694.516 111.233 693.915 110.607C693.314 109.982 692.571 109.673 691.673 109.673H675.523C674.724 109.673 674.003 109.989 673.352 110.607C672.701 111.233 672.383 111.93 672.383 112.693V207.552C672.383 208.414 672.709 209.138 673.352 209.71C674.003 210.289 674.724 210.572 675.523 210.572H733.987C734.885 210.572 735.635 210.283 736.228 209.71C736.83 209.131 737.127 208.414 737.127 207.552V195.17C737.127 194.4 736.83 193.729 736.228 193.157C735.635 192.584 734.885 192.295 733.987 192.295Z" fill="white"/>
<path d="M930.352 109.081H858.552C857.831 109.081 857.18 109.324 856.615 109.798C856.049 110.278 855.766 110.903 855.766 111.666V124.048C855.766 124.818 856.049 125.463 856.615 125.989C857.18 126.516 857.824 126.779 858.552 126.779H868.487C869.47 126.805 870.311 127.108 871.011 127.713C871.74 128.345 872.1 129.141 872.1 130.101V208.572C872.1 209.828 872.772 210.453 874.123 210.453H892.635C893.151 210.453 893.618 210.289 894.035 209.947C894.445 209.611 894.657 209.151 894.657 208.572V130.108C894.657 129.239 895.018 128.47 895.746 127.792C896.446 127.141 897.288 126.812 898.278 126.785H930.345C931.173 126.785 931.866 126.496 932.431 125.923C932.997 125.345 933.28 124.726 933.28 124.048V111.666C933.28 110.995 932.997 110.397 932.431 109.864C931.873 109.344 931.18 109.081 930.352 109.081Z" fill="white"/>
<path d="M846.446 109.081H774.645C773.924 109.081 773.274 109.324 772.708 109.798C772.142 110.278 771.859 110.903 771.859 111.666V124.048C771.859 124.818 772.142 125.463 772.708 125.989C773.274 126.516 773.917 126.779 774.645 126.779H846.446C847.273 126.779 847.966 126.489 848.532 125.917C849.097 125.338 849.38 124.719 849.38 124.042V111.66C849.38 110.989 849.097 110.39 848.532 109.857C847.966 109.344 847.266 109.081 846.446 109.081Z" fill="white"/>
<path d="M577.014 113.173C574.503 110.384 571.519 108.12 568.196 106.219C568.033 106.127 567.857 106.022 567.68 106.002C567.51 105.989 567.277 106.041 567.164 106.147C566.952 106.357 566.782 106.614 566.633 106.87C565.799 108.324 564.972 109.792 564.144 111.252C556.953 123.865 549.91 136.556 542.62 149.129C539.155 155.103 535.81 161.136 532.416 167.143C530.818 169.965 529.368 172.853 528.124 175.821C526.342 180.071 524.977 184.42 524.362 188.959C523.648 194.21 524.178 199.322 526.186 204.289C526.434 204.894 526.703 205.499 527.014 206.078C528.704 209.217 530.882 212.033 533.512 214.546C535.386 216.342 537.578 217.73 539.883 219C540.074 218.882 540.272 218.822 540.364 218.691C540.605 218.349 540.803 217.974 541.008 217.605C551.65 198.808 562.292 180.012 572.927 161.215C573.195 160.748 573.436 160.267 573.683 159.787C574.065 159.044 574.412 158.28 574.822 157.55C576.561 154.464 578.173 151.326 579.524 148.069C581.32 143.76 582.706 139.359 583.272 134.747C583.632 131.799 583.654 128.865 583.173 125.924C582.402 121.134 580.351 116.884 577.014 113.173Z" fill="white"/>
<path d="M525.608 154.556C526.414 155.418 527.998 155.418 528.811 154.543C529.101 154.234 529.327 153.872 529.539 153.517C531.547 150.102 533.555 146.688 535.542 143.266C535.839 142.753 536.101 142.207 536.313 141.655C536.808 140.398 536.822 139.122 536.398 137.839C536.122 136.99 535.733 136.187 535.281 135.404C533.343 132.023 531.406 128.641 529.483 125.253C527.821 122.338 526.173 119.41 524.504 116.496C524.207 115.976 523.889 115.463 523.536 114.976C523.097 114.357 522.468 113.963 521.669 113.877C520.976 113.805 520.283 113.739 519.59 113.732C517.306 113.713 515.029 113.726 512.745 113.726C510.525 113.726 508.312 113.726 506.091 113.726C505.646 113.726 505.2 113.706 504.762 113.752C504.394 113.792 504.012 113.884 503.666 114.015C503.164 114.206 502.881 114.594 502.803 115.094C502.732 115.574 502.782 116.042 503.015 116.476C503.277 116.95 503.546 117.417 503.821 117.877C510.56 129.299 517.299 140.72 524.038 152.135C524.342 152.655 524.632 153.175 524.95 153.688C525.148 153.991 525.36 154.293 525.608 154.556Z" fill="white"/>
<path d="M649.183 159.254C644.297 157.102 637.968 154.78 630.204 152.299C628.083 151.51 625.735 150.562 623.147 149.464C618.798 147.615 615.885 146.247 614.421 145.365C610.751 143.22 608.92 140.68 608.92 137.759C608.92 135.911 609.733 134.082 611.359 132.272C612.986 130.47 615.213 128.93 618.042 127.66C621.818 126.298 625.848 125.614 630.147 125.614C633.817 125.614 637.487 126.101 641.157 127.075C644.304 127.858 648.023 129.364 652.323 131.608C652.846 131.904 653.369 132.049 653.892 132.049C654.522 132.049 654.995 131.904 655.307 131.608L655.462 131.463C655.434 131.463 655.42 131.476 655.398 131.483L657.187 129.121C660.228 125.121 662.01 122.588 662.533 121.515C662.639 121.324 662.533 120.982 662.215 120.489C661.904 120.002 661.48 119.561 660.956 119.173C658.128 116.93 655.08 115.028 651.835 113.469C648.363 111.949 644.29 110.804 639.623 110.021C634.334 108.923 629.391 108.725 624.922 109.067C624.773 109.074 624.625 109.074 624.469 109.081C624.073 109.12 623.677 109.173 623.288 109.219C622.97 109.252 622.652 109.291 622.334 109.331C622.284 109.337 622.235 109.344 622.185 109.35C614.549 110.337 608.531 112.811 604.875 114.673C604.09 115.068 603.341 115.476 602.613 115.91C601.524 116.548 600.937 116.969 600.937 116.969C598.292 118.759 596.072 120.831 594.276 123.186C592.161 125.956 590.754 129.002 590.04 132.331C589.404 134.43 589.085 136.582 589.085 138.786C589.085 143.371 590.549 147.812 593.491 152.102C595.902 155.319 599.6 158.03 604.578 160.221C609.464 162.372 615.793 164.695 623.557 167.175C625.679 167.965 628.026 168.912 630.614 170.011C634.963 171.859 637.876 173.228 639.34 174.109C643.01 176.254 644.841 178.794 644.841 181.715C644.841 183.564 644.028 185.393 642.402 187.202C640.775 189.005 638.548 190.544 635.719 191.814C631.944 193.176 627.913 193.86 623.614 193.86C619.944 193.86 616.274 193.373 612.604 192.4C609.457 191.617 605.738 190.11 601.439 187.867C600.915 187.571 600.392 187.426 599.869 187.426C599.24 187.426 598.766 187.571 598.455 187.867L598.299 188.011C598.327 188.011 598.342 187.998 598.363 187.992L596.574 190.354C593.533 194.354 591.751 196.887 591.228 197.959C591.122 198.15 591.228 198.492 591.546 198.985C591.857 199.472 592.282 199.913 592.805 200.301C595.633 202.545 598.681 204.446 601.927 206.006C605.49 207.565 609.684 208.736 614.506 209.519C619.329 210.302 624.257 210.591 629.285 210.4C636.207 209.716 642.338 207.933 647.684 205.058C653.03 202.183 657.202 198.597 660.186 194.301C663.177 190.005 664.669 185.472 664.669 180.695C664.669 176.11 663.205 171.669 660.263 167.379C657.859 164.155 654.168 161.445 649.183 159.254Z" fill="white"/>
<path d="M485.09 159.221C480.204 157.069 473.876 154.747 466.112 152.266C463.99 151.477 461.643 150.53 459.055 149.431C454.706 147.582 451.792 146.214 450.329 145.332C446.659 143.187 444.827 140.648 444.827 137.726C444.827 135.878 445.641 134.049 447.267 132.239C448.893 130.437 451.121 128.897 453.949 127.627C457.725 126.265 461.756 125.581 466.055 125.581C469.725 125.581 473.395 126.068 477.065 127.042C480.211 127.825 483.931 129.331 488.23 131.575C488.753 131.871 489.277 132.016 489.8 132.016C490.429 132.016 490.903 131.871 491.214 131.575L491.37 131.43C491.341 131.43 491.327 131.443 491.306 131.45L493.095 129.088C496.136 125.088 497.917 122.555 498.441 121.482C498.547 121.291 498.441 120.949 498.122 120.456C497.811 119.969 497.387 119.528 496.864 119.14C494.035 116.897 490.988 114.995 487.742 113.436C484.178 111.877 479.985 110.706 475.163 109.923C470.34 109.14 465.411 108.85 460.384 109.041C453.461 109.725 447.331 111.508 441.985 114.383C436.639 117.258 432.467 120.844 429.483 125.14C426.492 129.437 425 133.97 425 138.746C425 143.332 426.464 147.773 429.405 152.062C431.817 155.28 435.515 157.99 440.493 160.181C445.379 162.333 451.708 164.655 459.472 167.135C461.593 167.925 463.941 168.872 466.529 169.971C470.877 171.82 473.791 173.188 475.254 174.07C478.924 176.215 480.756 178.754 480.756 181.676C480.756 183.524 479.943 185.353 478.316 187.163C476.69 188.965 474.463 190.505 471.634 191.775C467.858 193.137 463.828 193.821 459.528 193.821C455.858 193.821 452.188 193.334 448.519 192.36C445.372 191.577 441.652 190.071 437.353 187.827C436.83 187.531 436.307 187.386 435.783 187.386C435.154 187.386 434.68 187.531 434.369 187.827L434.214 187.972C434.242 187.972 434.256 187.959 434.277 187.952L432.488 190.314C429.448 194.314 427.666 196.847 427.143 197.92C427.036 198.11 427.143 198.453 427.461 198.946C427.772 199.433 428.196 199.874 428.719 200.262C431.548 202.505 434.596 204.407 437.841 205.966C441.313 207.486 445.386 208.631 450.053 209.413C455.342 210.512 460.285 210.71 464.754 210.367C464.902 210.361 465.051 210.361 465.206 210.354C465.602 210.315 465.998 210.262 466.387 210.216C466.705 210.183 467.024 210.144 467.342 210.104C467.391 210.098 467.441 210.091 467.49 210.085C475.127 209.098 481.145 206.624 484.8 204.762C485.585 204.367 486.335 203.959 487.063 203.525C488.152 202.887 488.739 202.466 488.739 202.466C491.384 200.676 493.604 198.604 495.4 196.248C497.514 193.479 498.922 190.432 499.636 187.103C500.272 185.005 500.59 182.853 500.59 180.649C500.59 176.063 499.127 171.622 496.185 167.333C493.767 164.122 490.068 161.418 485.09 159.221Z" fill="white"/>
<path d="M1170.6 167.471C1168.19 164.254 1164.49 161.543 1159.51 159.352C1154.63 157.201 1148.3 154.878 1140.54 152.398C1138.41 151.608 1136.07 150.661 1133.48 149.562C1129.13 147.714 1126.22 146.345 1124.75 145.463C1121.08 143.319 1119.25 140.779 1119.25 137.858C1119.25 136.009 1120.06 134.18 1121.69 132.371C1123.32 130.568 1125.54 129.029 1128.37 127.759C1132.15 126.397 1136.18 125.713 1140.48 125.713C1144.15 125.713 1147.82 126.199 1151.49 127.173C1154.63 127.956 1158.35 129.463 1162.65 131.706C1163.18 132.002 1163.7 132.147 1164.22 132.147C1164.85 132.147 1165.33 132.002 1165.64 131.706L1165.79 131.562C1165.76 131.562 1165.75 131.575 1165.73 131.581L1167.52 129.219C1170.56 125.219 1172.34 122.686 1172.86 121.614C1172.97 121.423 1172.86 121.081 1172.55 120.587C1172.23 120.101 1171.81 119.66 1171.29 119.272C1168.46 117.028 1165.41 115.127 1162.17 113.567C1158.69 112.048 1154.62 110.903 1149.95 110.12C1144.66 109.021 1139.72 108.824 1135.25 109.166C1135.1 109.172 1134.96 109.172 1134.8 109.179C1134.4 109.219 1134.01 109.271 1133.62 109.317C1133.3 109.35 1132.98 109.39 1132.66 109.429C1132.62 109.436 1132.57 109.442 1132.52 109.449C1124.88 110.436 1118.86 112.909 1115.21 114.771C1114.42 115.166 1113.67 115.574 1112.94 116.008C1111.85 116.646 1111.27 117.068 1111.27 117.068C1108.62 118.857 1106.4 120.93 1104.61 123.285C1102.49 126.055 1101.09 129.101 1100.37 132.43C1099.73 134.529 1099.42 136.68 1099.42 138.884C1099.42 143.47 1100.88 147.911 1103.82 152.201C1106.23 155.418 1109.93 158.128 1114.91 160.319C1119.8 162.471 1126.12 164.793 1133.89 167.274C1136.01 168.063 1138.36 169.01 1140.95 170.109C1145.29 171.958 1148.21 173.326 1149.67 174.208C1153.34 176.353 1155.17 178.892 1155.17 181.814C1155.17 183.662 1154.36 185.491 1152.73 187.301C1151.11 189.103 1148.88 190.643 1146.05 191.913C1142.27 193.275 1138.24 193.959 1133.94 193.959C1130.27 193.959 1126.6 193.472 1122.94 192.498C1119.79 191.715 1116.07 190.209 1111.77 187.965C1111.25 187.669 1110.72 187.524 1110.2 187.524C1109.57 187.524 1109.1 187.669 1108.79 187.965L1108.63 188.11C1108.66 188.11 1108.67 188.097 1108.69 188.09L1106.9 190.452C1103.86 194.452 1102.08 196.985 1101.56 198.058C1101.45 198.248 1101.56 198.591 1101.88 199.084C1102.19 199.571 1102.61 200.012 1103.14 200.4C1105.96 202.643 1109.01 204.545 1112.26 206.104C1115.82 207.663 1120.01 208.834 1124.84 209.617C1129.66 210.4 1134.59 210.69 1139.62 210.499C1146.54 209.815 1152.67 208.032 1158.01 205.157C1163.36 202.282 1167.53 198.696 1170.52 194.4C1173.51 190.103 1175 185.57 1175 180.794C1175.01 176.202 1173.54 171.761 1170.6 167.471Z" fill="white"/>
<path d="M522.034 259.888C522.034 264.528 521.164 268.414 519.424 271.546C517.684 274.678 515.171 277.037 511.884 278.622C508.636 280.207 504.711 281 500.11 281H488.51V239.588H501.328C505.543 239.588 509.197 240.361 512.29 241.908C515.383 243.455 517.781 245.736 519.482 248.752C521.183 251.729 522.034 255.441 522.034 259.888ZM515.48 260.062C515.48 256.582 514.919 253.721 513.798 251.478C512.677 249.235 511.014 247.573 508.81 246.49C506.645 245.407 504.015 244.866 500.922 244.866H494.774V275.722H499.82C505.04 275.722 508.945 274.407 511.536 271.778C514.165 269.149 515.48 265.243 515.48 260.062ZM542.647 249.158C545.392 249.158 547.751 249.738 549.723 250.898C551.695 252.019 553.203 253.643 554.247 255.77C555.33 257.897 555.871 260.41 555.871 263.31V266.674H534.875C534.952 269.883 535.784 272.339 537.369 274.04C538.993 275.741 541.255 276.592 544.155 276.592C546.166 276.592 547.944 276.418 549.491 276.07C551.076 275.683 552.7 275.123 554.363 274.388V279.492C552.816 280.188 551.231 280.71 549.607 281.058C548.022 281.406 546.127 281.58 543.923 281.58C540.907 281.58 538.239 280.981 535.919 279.782C533.599 278.583 531.782 276.805 530.467 274.446C529.191 272.049 528.553 269.11 528.553 265.63C528.553 262.111 529.133 259.134 530.293 256.698C531.492 254.262 533.135 252.406 535.223 251.13C537.35 249.815 539.824 249.158 542.647 249.158ZM542.647 253.914C540.443 253.914 538.664 254.629 537.311 256.06C535.996 257.491 535.223 259.521 534.991 262.15H549.723C549.723 260.526 549.472 259.095 548.969 257.858C548.466 256.621 547.693 255.654 546.649 254.958C545.605 254.262 544.271 253.914 542.647 253.914ZM574.273 281.58C570.522 281.58 567.487 280.227 565.167 277.52C562.885 274.813 561.745 270.792 561.745 265.456C561.745 260.081 562.905 256.021 565.225 253.276C567.545 250.531 570.599 249.158 574.389 249.158C575.974 249.158 577.347 249.371 578.507 249.796C579.705 250.183 580.73 250.724 581.581 251.42C582.47 252.116 583.224 252.889 583.843 253.74H584.191C584.113 253.199 584.017 252.425 583.901 251.42C583.785 250.376 583.727 249.448 583.727 248.636V236.92H589.875V281H585.061L584.017 276.824H583.727C583.147 277.713 582.412 278.525 581.523 279.26C580.672 279.956 579.647 280.517 578.449 280.942C577.25 281.367 575.858 281.58 574.273 281.58ZM575.723 276.534C578.739 276.534 580.865 275.703 582.103 274.04C583.34 272.339 583.959 269.806 583.959 266.442V265.514C583.959 261.841 583.359 259.037 582.161 257.104C581.001 255.171 578.835 254.204 575.665 254.204C573.151 254.204 571.257 255.229 569.981 257.278C568.705 259.289 568.067 262.053 568.067 265.572C568.067 269.091 568.705 271.797 569.981 273.692C571.257 275.587 573.171 276.534 575.723 276.534ZM605.657 249.738V281H599.509V249.738H605.657ZM602.641 237.848C603.569 237.848 604.381 238.119 605.077 238.66C605.773 239.201 606.121 240.11 606.121 241.386C606.121 242.623 605.773 243.532 605.077 244.112C604.381 244.653 603.569 244.924 602.641 244.924C601.636 244.924 600.785 244.653 600.089 244.112C599.432 243.532 599.103 242.623 599.103 241.386C599.103 240.11 599.432 239.201 600.089 238.66C600.785 238.119 601.636 237.848 602.641 237.848ZM627.898 281.58C625.037 281.58 622.523 281.019 620.358 279.898C618.193 278.777 616.511 277.037 615.312 274.678C614.113 272.281 613.514 269.245 613.514 265.572C613.514 261.705 614.152 258.573 615.428 256.176C616.743 253.779 618.502 252.019 620.706 250.898C622.949 249.738 625.501 249.158 628.362 249.158C630.102 249.158 631.726 249.351 633.234 249.738C634.781 250.086 636.057 250.492 637.062 250.956L635.206 255.944C634.123 255.519 632.963 255.151 631.726 254.842C630.527 254.533 629.387 254.378 628.304 254.378C626.371 254.378 624.766 254.803 623.49 255.654C622.253 256.466 621.325 257.703 620.706 259.366C620.126 260.99 619.836 263.039 619.836 265.514C619.836 267.873 620.145 269.864 620.764 271.488C621.383 273.112 622.291 274.349 623.49 275.2C624.727 276.012 626.255 276.418 628.072 276.418C629.812 276.418 631.339 276.225 632.654 275.838C633.969 275.451 635.206 274.949 636.366 274.33V279.666C635.245 280.323 634.027 280.807 632.712 281.116C631.397 281.425 629.793 281.58 627.898 281.58ZM655.868 249.158C659.812 249.158 662.75 250.028 664.684 251.768C666.617 253.469 667.584 256.157 667.584 259.83V281H663.234L662.016 276.65H661.784C660.894 277.771 659.966 278.699 659 279.434C658.072 280.169 656.989 280.71 655.752 281.058C654.553 281.406 653.084 281.58 651.344 281.58C649.488 281.58 647.806 281.251 646.298 280.594C644.828 279.898 643.668 278.854 642.818 277.462C641.967 276.031 641.542 274.253 641.542 272.126C641.542 268.955 642.74 266.539 645.138 264.876C647.574 263.213 651.266 262.305 656.216 262.15L661.552 261.976V260.236C661.552 257.916 661.03 256.292 659.986 255.364C658.942 254.436 657.472 253.972 655.578 253.972C653.954 253.972 652.407 254.204 650.938 254.668C649.468 255.132 648.076 255.693 646.762 256.35L644.79 251.884C646.259 251.111 647.941 250.473 649.836 249.97C651.769 249.429 653.78 249.158 655.868 249.158ZM657.318 266.094C653.76 266.249 651.286 266.848 649.894 267.892C648.54 268.897 647.864 270.328 647.864 272.184C647.864 273.808 648.347 274.987 649.314 275.722C650.319 276.457 651.576 276.824 653.084 276.824C655.52 276.824 657.53 276.147 659.116 274.794C660.701 273.441 661.494 271.411 661.494 268.704V265.978L657.318 266.094ZM688.302 276.592C689.114 276.592 689.946 276.515 690.796 276.36C691.647 276.205 692.382 276.031 693 275.838V280.478C692.343 280.787 691.454 281.039 690.332 281.232C689.211 281.464 688.09 281.58 686.968 281.58C685.267 281.58 683.701 281.29 682.27 280.71C680.878 280.13 679.757 279.125 678.906 277.694C678.056 276.263 677.63 274.272 677.63 271.72V254.436H673.28V251.652L677.862 249.332L680.008 242.72H683.778V249.738H692.71V254.436H683.778V271.604C683.778 273.305 684.184 274.562 684.996 275.374C685.847 276.186 686.949 276.592 688.302 276.592ZM711.549 249.158C714.295 249.158 716.653 249.738 718.625 250.898C720.597 252.019 722.105 253.643 723.149 255.77C724.232 257.897 724.773 260.41 724.773 263.31V266.674H703.777C703.855 269.883 704.686 272.339 706.271 274.04C707.895 275.741 710.157 276.592 713.057 276.592C715.068 276.592 716.847 276.418 718.393 276.07C719.979 275.683 721.603 275.123 723.265 274.388V279.492C721.719 280.188 720.133 280.71 718.509 281.058C716.924 281.406 715.029 281.58 712.825 281.58C709.809 281.58 707.141 280.981 704.821 279.782C702.501 278.583 700.684 276.805 699.369 274.446C698.093 272.049 697.455 269.11 697.455 265.63C697.455 262.111 698.035 259.134 699.195 256.698C700.394 254.262 702.037 252.406 704.125 251.13C706.252 249.815 708.727 249.158 711.549 249.158ZM711.549 253.914C709.345 253.914 707.567 254.629 706.213 256.06C704.899 257.491 704.125 259.521 703.893 262.15H718.625C718.625 260.526 718.374 259.095 717.871 257.858C717.369 256.621 716.595 255.654 715.551 254.958C714.507 254.262 713.173 253.914 711.549 253.914ZM743.175 281.58C739.424 281.58 736.389 280.227 734.069 277.52C731.788 274.813 730.647 270.792 730.647 265.456C730.647 260.081 731.807 256.021 734.127 253.276C736.447 250.531 739.502 249.158 743.291 249.158C744.876 249.158 746.249 249.371 747.409 249.796C748.608 250.183 749.632 250.724 750.483 251.42C751.372 252.116 752.126 252.889 752.745 253.74H753.093C753.016 253.199 752.919 252.425 752.803 251.42C752.687 250.376 752.629 249.448 752.629 248.636V236.92H758.777V281H753.963L752.919 276.824H752.629C752.049 277.713 751.314 278.525 750.425 279.26C749.574 279.956 748.55 280.517 747.351 280.942C746.152 281.367 744.76 281.58 743.175 281.58ZM744.625 276.534C747.641 276.534 749.768 275.703 751.005 274.04C752.242 272.339 752.861 269.806 752.861 266.442V265.514C752.861 261.841 752.262 259.037 751.063 257.104C749.903 255.171 747.738 254.204 744.567 254.204C742.054 254.204 740.159 255.229 738.883 257.278C737.607 259.289 736.969 262.053 736.969 265.572C736.969 269.091 737.607 271.797 738.883 273.692C740.159 275.587 742.073 276.534 744.625 276.534ZM794.73 276.592C795.542 276.592 796.373 276.515 797.224 276.36C798.075 276.205 798.809 276.031 799.428 275.838V280.478C798.771 280.787 797.881 281.039 796.76 281.232C795.639 281.464 794.517 281.58 793.396 281.58C791.695 281.58 790.129 281.29 788.698 280.71C787.306 280.13 786.185 279.125 785.334 277.694C784.483 276.263 784.058 274.272 784.058 271.72V254.436H779.708V251.652L784.29 249.332L786.436 242.72H790.206V249.738H799.138V254.436H790.206V271.604C790.206 273.305 790.612 274.562 791.424 275.374C792.275 276.186 793.377 276.592 794.73 276.592ZM833.231 265.34C833.231 267.931 832.883 270.231 832.187 272.242C831.491 274.253 830.505 275.954 829.229 277.346C827.953 278.738 826.407 279.801 824.589 280.536C822.772 281.232 820.723 281.58 818.441 281.58C816.353 281.58 814.42 281.232 812.641 280.536C810.863 279.801 809.316 278.738 808.001 277.346C806.725 275.954 805.72 274.253 804.985 272.242C804.251 270.231 803.883 267.911 803.883 265.282C803.883 261.841 804.463 258.921 805.623 256.524C806.822 254.127 808.523 252.309 810.727 251.072C812.97 249.796 815.599 249.158 818.615 249.158C821.477 249.158 823.99 249.796 826.155 251.072C828.359 252.309 830.08 254.127 831.317 256.524C832.593 258.921 833.231 261.86 833.231 265.34ZM810.205 265.34C810.205 267.66 810.495 269.671 811.075 271.372C811.655 273.035 812.564 274.311 813.801 275.2C815.039 276.089 816.624 276.534 818.557 276.534C820.491 276.534 822.076 276.089 823.313 275.2C824.551 274.311 825.459 273.035 826.039 271.372C826.619 269.671 826.909 267.66 826.909 265.34C826.909 262.943 826.6 260.932 825.981 259.308C825.401 257.684 824.493 256.447 823.255 255.596C822.057 254.707 820.471 254.262 818.499 254.262C815.599 254.262 813.492 255.229 812.177 257.162C810.863 259.095 810.205 261.821 810.205 265.34Z" fill="white"/>
<path d="M868.793 239.588C873.781 239.588 877.455 240.748 879.813 243.068C882.211 245.349 883.409 248.501 883.409 252.522C883.409 254.339 883.158 256.079 882.655 257.742C882.153 259.366 881.321 260.835 880.161 262.15C879.001 263.426 877.455 264.431 875.521 265.166C873.627 265.901 871.287 266.268 868.503 266.268H865.255V281H855.859V239.588H868.793ZM868.503 246.78H865.255V259.076H867.633C868.871 259.076 869.973 258.863 870.939 258.438C871.906 258.013 872.66 257.336 873.201 256.408C873.743 255.48 874.013 254.281 874.013 252.812C874.013 250.763 873.549 249.255 872.621 248.288C871.732 247.283 870.359 246.78 868.503 246.78ZM902.536 248.752C905.359 248.752 907.795 249.313 909.844 250.434C911.894 251.555 913.479 253.179 914.6 255.306C915.722 257.433 916.282 260.043 916.282 263.136V267.312H897.432C897.51 269.748 898.128 271.662 899.288 273.054C900.487 274.446 902.188 275.142 904.392 275.142C906.326 275.142 908.066 274.949 909.612 274.562C911.198 274.137 912.822 273.499 914.484 272.648V279.318C913.054 280.091 911.488 280.652 909.786 281C908.124 281.387 906.055 281.58 903.58 281.58C900.564 281.58 897.877 281 895.518 279.84C893.198 278.641 891.362 276.843 890.008 274.446C888.694 272.049 888.036 269.033 888.036 265.398C888.036 261.686 888.636 258.612 889.834 256.176C891.072 253.701 892.773 251.845 894.938 250.608C897.142 249.371 899.675 248.752 902.536 248.752ZM902.71 254.9C901.318 254.9 900.158 255.441 899.23 256.524C898.302 257.607 897.761 259.289 897.606 261.57H907.756C907.756 260.294 907.563 259.153 907.176 258.148C906.79 257.143 906.229 256.35 905.494 255.77C904.76 255.19 903.832 254.9 902.71 254.9ZM940.431 248.752C943.602 248.752 946.154 249.68 948.087 251.536C950.059 253.353 951.045 256.292 951.045 260.352V281H941.765V262.498C941.765 260.217 941.417 258.515 940.721 257.394C940.064 256.234 939 255.654 937.531 255.654C935.288 255.654 933.78 256.563 933.007 258.38C932.234 260.159 931.847 262.73 931.847 266.094V281H922.567V249.332H929.585L930.861 253.392H931.267C931.924 252.309 932.698 251.439 933.587 250.782C934.515 250.086 935.559 249.583 936.719 249.274C937.879 248.926 939.116 248.752 940.431 248.752ZM972.39 274.678C973.318 274.678 974.169 274.581 974.942 274.388C975.754 274.195 976.586 273.963 977.436 273.692V280.13C976.47 280.517 975.329 280.845 974.014 281.116C972.738 281.425 971.23 281.58 969.49 281.58C967.634 281.58 965.972 281.271 964.502 280.652C963.072 280.033 961.95 278.97 961.138 277.462C960.326 275.915 959.92 273.789 959.92 271.082V255.828H956.15V252.174L960.674 249.274L963.226 242.604H969.2V249.332H977.088V255.828H969.2V271.082C969.2 272.281 969.49 273.189 970.07 273.808C970.65 274.388 971.424 274.678 972.39 274.678ZM996.05 248.752C998.873 248.752 1001.31 249.313 1003.36 250.434C1005.41 251.555 1006.99 253.179 1008.11 255.306C1009.24 257.433 1009.8 260.043 1009.8 263.136V267.312H990.946C991.023 269.748 991.642 271.662 992.802 273.054C994.001 274.446 995.702 275.142 997.906 275.142C999.839 275.142 1001.58 274.949 1003.13 274.562C1004.71 274.137 1006.34 273.499 1008 272.648V279.318C1006.57 280.091 1005 280.652 1003.3 281C1001.64 281.387 999.569 281.58 997.094 281.58C994.078 281.58 991.391 281 989.032 279.84C986.712 278.641 984.875 276.843 983.522 274.446C982.207 272.049 981.55 269.033 981.55 265.398C981.55 261.686 982.149 258.612 983.348 256.176C984.585 253.701 986.287 251.845 988.452 250.608C990.656 249.371 993.189 248.752 996.05 248.752ZM996.224 254.9C994.832 254.9 993.672 255.441 992.744 256.524C991.816 257.607 991.275 259.289 991.12 261.57H1001.27C1001.27 260.294 1001.08 259.153 1000.69 258.148C1000.3 257.143 999.743 256.35 999.008 255.77C998.273 255.19 997.345 254.9 996.224 254.9ZM1037.66 271.604C1037.66 273.731 1037.19 275.548 1036.26 277.056C1035.38 278.525 1034 279.647 1032.15 280.42C1030.29 281.193 1027.89 281.58 1024.95 281.58C1022.83 281.58 1020.97 281.425 1019.39 281.116C1017.8 280.845 1016.2 280.381 1014.57 279.724V272.59C1016.35 273.363 1018.19 274.001 1020.08 274.504C1021.98 275.007 1023.56 275.258 1024.84 275.258C1026.23 275.258 1027.22 275.007 1027.8 274.504C1028.42 274.001 1028.72 273.344 1028.72 272.532C1028.72 271.991 1028.57 271.507 1028.26 271.082C1027.95 270.657 1027.33 270.173 1026.4 269.632C1025.48 269.091 1024.1 268.395 1022.29 267.544C1020.51 266.693 1019.04 265.862 1017.88 265.05C1016.76 264.199 1015.91 263.194 1015.33 262.034C1014.79 260.835 1014.51 259.347 1014.51 257.568C1014.51 254.629 1015.62 252.425 1017.82 250.956C1020.06 249.487 1023 248.752 1026.64 248.752C1028.57 248.752 1030.39 248.945 1032.09 249.332C1033.79 249.719 1035.55 250.357 1037.37 251.246L1034.76 257.452C1033.75 256.988 1032.77 256.582 1031.8 256.234C1030.83 255.886 1029.9 255.615 1029.01 255.422C1028.16 255.229 1027.35 255.132 1026.58 255.132C1025.57 255.132 1024.8 255.306 1024.26 255.654C1023.76 256.002 1023.5 256.524 1023.5 257.22C1023.5 257.723 1023.66 258.187 1023.97 258.612C1024.28 258.999 1024.88 259.443 1025.77 259.946C1026.66 260.41 1027.95 261.009 1029.65 261.744C1031.39 262.479 1032.84 263.252 1034 264.064C1035.2 264.837 1036.11 265.823 1036.73 267.022C1037.35 268.182 1037.66 269.709 1037.66 271.604ZM1057.35 274.678C1058.28 274.678 1059.13 274.581 1059.9 274.388C1060.72 274.195 1061.55 273.963 1062.4 273.692V280.13C1061.43 280.517 1060.29 280.845 1058.98 281.116C1057.7 281.425 1056.19 281.58 1054.45 281.58C1052.6 281.58 1050.93 281.271 1049.46 280.652C1048.03 280.033 1046.91 278.97 1046.1 277.462C1045.29 275.915 1044.88 273.789 1044.88 271.082V255.828H1041.11V252.174L1045.64 249.274L1048.19 242.604H1054.16V249.332H1062.05V255.828H1054.16V271.082C1054.16 272.281 1054.45 273.189 1055.03 273.808C1055.61 274.388 1056.38 274.678 1057.35 274.678ZM1089.65 271.604C1089.65 273.731 1089.19 275.548 1088.26 277.056C1087.37 278.525 1086 279.647 1084.14 280.42C1082.29 281.193 1079.89 281.58 1076.95 281.58C1074.82 281.58 1072.97 281.425 1071.38 281.116C1069.8 280.845 1068.19 280.381 1066.57 279.724V272.59C1068.35 273.363 1070.18 274.001 1072.08 274.504C1073.97 275.007 1075.56 275.258 1076.83 275.258C1078.23 275.258 1079.21 275.007 1079.79 274.504C1080.41 274.001 1080.72 273.344 1080.72 272.532C1080.72 271.991 1080.57 271.507 1080.26 271.082C1079.95 270.657 1079.33 270.173 1078.4 269.632C1077.47 269.091 1076.1 268.395 1074.28 267.544C1072.5 266.693 1071.03 265.862 1069.87 265.05C1068.75 264.199 1067.9 263.194 1067.32 262.034C1066.78 260.835 1066.51 259.347 1066.51 257.568C1066.51 254.629 1067.61 252.425 1069.82 250.956C1072.06 249.487 1075 248.752 1078.63 248.752C1080.57 248.752 1082.38 248.945 1084.08 249.332C1085.79 249.719 1087.55 250.357 1089.36 251.246L1086.75 257.452C1085.75 256.988 1084.76 256.582 1083.79 256.234C1082.83 255.886 1081.9 255.615 1081.01 255.422C1080.16 255.229 1079.35 255.132 1078.57 255.132C1077.57 255.132 1076.8 255.306 1076.25 255.654C1075.75 256.002 1075.5 256.524 1075.5 257.22C1075.5 257.723 1075.66 258.187 1075.96 258.612C1076.27 258.999 1076.87 259.443 1077.76 259.946C1078.65 260.41 1079.95 261.009 1081.65 261.744C1083.39 262.479 1084.84 263.252 1086 264.064C1087.2 264.837 1088.11 265.823 1088.72 267.022C1089.34 268.182 1089.65 269.709 1089.65 271.604Z" fill="#EACA09"/>
</g>
<defs>
<clipPath id="clip0_363_398">
<rect width="1584" height="396" fill="white"/>
</clipPath>
</defs>
</svg>
