<?xml version="1.0" encoding="UTF-8" standalone="no"?>
<!DOCTYPE svg PUBLIC "-//W3C//DTD SVG 1.1//EN" "http://www.w3.org/Graphics/SVG/1.1/DTD/svg11.dtd">
<!-- Created with Vectornator (http://vectornator.io/) -->
<svg height="100%" stroke-miterlimit="10" style="fill-rule:nonzero;clip-rule:evenodd;stroke-linecap:round;stroke-linejoin:round;" version="1.1" viewBox="0 0 1584 396" width="100%" xml:space="preserve" xmlns="http://www.w3.org/2000/svg" xmlns:vectornator="http://vectornator.io" xmlns:xlink="http://www.w3.org/1999/xlink">
<defs/>
<path d="M0 0L1584 0L1584 396L0 396L0 0Z" fill="#3facaf" fill-rule="nonzero" opacity="1" stroke="none"/>
<g id="Untitled" vectornator:layerName="Untitled">
<g opacity="1" vectornator:layerName="g">
<path d="M743.786 46.8221C736.348 37.9388 727.487 30.7202 717.643 24.6593C717.166 24.3642 716.644 24.0161 716.115 23.9707C715.615 23.9253 714.919 24.0918 714.594 24.4323C713.958 25.0981 713.451 25.9229 713.012 26.7401C710.53 31.3861 708.086 36.0547 705.62 40.7007C684.289 80.9026 663.413 121.347 641.802 161.405C631.534 180.443 621.614 199.662 611.543 218.806C606.814 227.803 602.516 237.004 598.816 246.47C593.534 260.007 589.493 273.869 587.662 288.336C585.536 305.074 587.125 321.365 593.065 337.187C593.791 339.124 594.586 341.038 595.509 342.885C600.518 352.888 606.988 361.854 614.774 369.875C620.32 375.596 626.828 380.014 633.668 384.063C634.228 383.692 634.833 383.488 635.106 383.071C635.824 381.974 636.407 380.786 637.02 379.621C668.573 319.715 700.126 259.81 731.672 199.904C732.459 198.406 733.178 196.877 733.912 195.349C735.047 192.973 736.076 190.552 737.294 188.221C742.447 178.384 747.229 168.374 751.239 158.015C756.559 144.289 760.675 130.245 762.362 115.558C763.437 106.168 763.497 96.8002 762.075 87.4327C759.767 72.1933 753.683 58.6489 743.786 46.8221Z" fill="#ffffff" fill-rule="nonzero" opacity="1" stroke="none" vectornator:layerName="path"/>
<path d="M591.355 178.71C593.753 181.464 598.437 181.457 600.851 178.664C601.699 177.681 602.387 176.538 603.015 175.388C608.97 164.515 614.918 153.634 620.82 142.723C621.712 141.081 622.469 139.348 623.112 137.585C624.573 133.574 624.618 129.519 623.362 125.418C622.537 122.701 621.387 120.151 620.055 117.662C614.305 106.887 608.577 96.1041 602.856 85.314C597.93 76.0221 593.035 66.7074 588.101 57.4155C587.223 55.7584 586.27 54.1316 585.233 52.5728C583.924 50.6055 582.07 49.3419 579.695 49.0695C577.644 48.8349 575.586 48.6306 573.52 48.6155C566.755 48.5625 559.991 48.5928 553.226 48.5928L553.226 48.5852C546.651 48.5852 540.075 48.5852 533.5 48.5852C532.183 48.5852 530.859 48.5171 529.558 48.6684C528.46 48.7971 527.341 49.077 526.319 49.5008C524.828 50.1137 523.988 51.347 523.754 52.9512C523.534 54.4721 523.686 55.9627 524.389 57.3474C525.154 58.8532 525.963 60.3438 526.773 61.8194C546.757 98.2152 566.74 134.611 586.716 171.007C587.624 172.656 588.479 174.329 589.433 175.948C590 176.909 590.621 177.87 591.355 178.71Z" fill="#ffffff" fill-rule="nonzero" opacity="1" stroke="none" vectornator:layerName="path"/>
</g>
<g opacity="1" vectornator:layerName="g">
<path d="M943.017 339.797C942.904 339.351 942.851 338.799 942.851 338.133C942.851 337.467 943.184 336.915 943.85 336.468C948.405 333.025 951.984 328.75 954.595 323.643C957.205 318.535 958.507 313.095 958.507 307.314C958.507 300.541 956.812 294.322 953.429 288.654C950.039 282.987 945.462 278.492 939.688 275.163C933.915 271.833 927.581 270.169 920.696 270.169L886.214 270.169C885.321 270.169 884.572 270.479 883.967 271.084C883.354 271.697 883.051 272.446 883.051 273.331L883.051 300.155C883.051 301.268 883.468 302.236 884.3 303.069C885.132 303.901 886.101 304.317 887.213 304.317L898.207 304.317C899.426 304.317 900.424 303.901 901.204 303.069C901.976 302.236 902.369 301.268 902.369 300.155L902.369 295.994C902.369 294.881 902.785 293.913 903.618 293.081C904.45 292.248 905.479 291.832 906.697 291.832L920.688 291.832C925.13 291.832 928.875 293.33 931.932 296.327C934.989 299.323 936.518 302.993 936.518 307.321C936.518 311.543 934.989 315.153 931.932 318.149C928.875 321.145 925.13 322.644 920.688 322.644L886.207 322.644C885.314 322.644 884.565 322.954 883.959 323.559C883.346 324.172 883.044 324.921 883.044 325.807L883.044 383.949C883.044 384.842 883.346 385.561 883.959 386.113C884.572 386.673 885.321 386.946 886.207 386.946L899.199 386.946C900.084 386.946 900.833 386.673 901.446 386.113C902.051 385.561 902.362 384.834 902.362 383.949L902.362 347.296C902.362 346.078 902.717 345.268 903.444 344.882C904.162 344.496 905.192 344.3 906.523 344.3L920.681 344.3C922.345 344.3 923.458 344.413 924.01 344.633C924.562 344.86 925.009 345.298 925.342 345.964L942.669 384.948C943.108 385.841 943.638 386.393 944.251 386.613C944.864 386.84 945.779 386.946 946.998 386.946L960.655 386.946C962.207 386.946 962.986 386.333 962.986 385.114C962.986 384.449 962.759 383.73 962.32 382.95L943.017 339.797Z" fill="#ffffff" fill-rule="nonzero" opacity="1" stroke="none" vectornator:layerName="path"/>
<path d="M874.002 366.387L816.661 366.387C815.882 366.387 815.163 366.054 814.497 365.388C813.831 364.722 813.498 364.003 813.498 363.224L813.498 345.049C813.498 342.718 814.777 341.545 817.335 341.545L859.844 341.545C860.624 341.545 861.289 341.296 861.842 340.796C862.394 340.297 862.674 339.661 862.674 338.882L862.674 324.543C862.674 323.764 862.394 323.128 861.842 322.629C861.282 322.129 860.616 321.879 859.844 321.879L817.834 321.879C814.943 321.879 813.498 320.828 813.498 318.709L813.498 306.708C813.498 305.823 813.218 305.097 812.666 304.544C812.106 303.992 811.387 303.712 810.502 303.712L796.329 303.712C795.55 303.712 794.854 303.992 794.248 304.544C793.636 305.104 793.333 305.823 793.333 306.708L793.333 383.722C793.333 384.502 793.636 385.198 794.248 385.803C794.861 386.416 795.55 386.719 796.329 386.719L874.009 386.719C874.894 386.719 875.621 386.416 876.173 385.803C876.726 385.198 877.006 384.502 877.006 383.722L877.006 369.383C877.006 368.498 876.726 367.772 876.173 367.219C875.613 366.667 874.894 366.387 874.002 366.387Z" fill="#ffffff" fill-rule="nonzero" opacity="1" stroke="none" vectornator:layerName="path"/>
<path d="M796.329 290.538L873.676 290.538C874.561 290.538 875.311 290.205 875.924 289.539C876.536 288.873 876.839 288.147 876.839 287.375L876.839 273.036C876.839 272.257 876.529 271.561 875.924 270.956C875.311 270.35 874.561 270.04 873.676 270.04L796.329 270.04C795.55 270.04 794.854 270.32 794.248 270.872C793.636 271.432 793.333 272.151 793.333 273.036L793.333 287.375C793.333 288.268 793.636 289.017 794.248 289.623C794.854 290.236 795.55 290.538 796.329 290.538Z" fill="#ffffff" fill-rule="nonzero" opacity="1" stroke="none" vectornator:layerName="path"/>
<path d="M888.84 144.085L872.261 144.085C871.489 144.085 870.771 144.387 870.105 145C869.439 145.605 869.113 146.355 869.113 147.24L869.113 257.305C869.113 258.077 869.416 258.773 870.029 259.378C870.634 259.984 871.383 260.294 872.269 260.294L888.847 260.294C889.733 260.294 890.452 259.991 891.004 259.378C891.556 258.773 891.836 258.085 891.836 257.305L891.836 147.232C891.836 146.347 891.534 145.605 890.928 144.993C890.3 144.387 889.612 144.085 888.84 144.085Z" fill="#ffffff" fill-rule="nonzero" opacity="1" stroke="none" vectornator:layerName="path"/>
<path d="M968.26 173.784L919.886 173.784C918.6 173.988 915.747 174.768 915.164 177.734L915.164 195.568C915.18 195.72 915.195 195.879 915.195 196.038L915.195 211.549L915.164 211.549L915.164 257.449C915.164 258.183 915.452 258.849 916.035 259.424C916.61 260.007 917.321 260.294 918.168 260.294L933.953 260.294C934.792 260.294 935.473 260.007 936.003 259.424C936.525 258.849 936.79 258.191 936.79 257.449L936.79 216.558L936.813 216.558L936.813 196.038C936.813 195.107 937.161 194.29 937.857 193.563C938.553 192.844 939.393 192.481 940.392 192.481L968.26 192.481C968.759 192.481 969.206 192.277 969.599 191.861C969.993 191.452 970.197 190.93 970.197 190.317L970.197 175.94C970.197 175.32 970 174.805 969.599 174.397C969.198 173.988 968.752 173.784 968.26 173.784Z" fill="#ffffff" fill-rule="nonzero" opacity="1" stroke="none" vectornator:layerName="path"/>
<path d="M858.217 239.259L819.499 239.259C818.644 239.259 817.902 238.903 817.259 238.184C816.616 237.465 816.298 236.671 816.298 235.785L816.298 147.709C816.298 146.824 815.98 146.029 815.337 145.31C814.694 144.592 813.899 144.236 812.938 144.236L795.656 144.236C794.801 144.236 794.029 144.599 793.333 145.31C792.637 146.029 792.296 146.831 792.296 147.709L792.296 256.806C792.296 257.797 792.644 258.629 793.333 259.288C794.029 259.954 794.801 260.279 795.656 260.279L858.217 260.279C859.178 260.279 859.98 259.946 860.616 259.288C861.259 258.622 861.577 257.797 861.577 256.806L861.577 242.565C861.577 241.68 861.259 240.908 860.616 240.25C859.98 239.592 859.178 239.259 858.217 239.259Z" fill="#ffffff" fill-rule="nonzero" opacity="1" stroke="none" vectornator:layerName="path"/>
<path d="M1057.21 143.555L991.505 143.555C990.733 143.555 990.037 143.835 989.432 144.38C988.826 144.932 988.524 145.651 988.524 146.529L988.524 160.769C988.524 161.654 988.826 162.396 989.432 163.001C990.037 163.607 990.726 163.909 991.505 163.909L1002.14 163.909C1003.19 163.94 1004.09 164.288 1004.84 164.984C1005.62 165.71 1006 166.626 1006 167.731L1006 257.979C1006 259.424 1006.72 260.143 1008.17 260.143L1027.98 260.143C1028.53 260.143 1029.03 259.954 1029.47 259.56C1029.91 259.174 1030.14 258.645 1030.14 257.979L1030.14 167.738C1030.14 166.739 1030.53 165.854 1031.31 165.075C1032.05 164.326 1032.96 163.947 1034.01 163.917L1057.2 163.917C1058.08 163.917 1058.83 163.584 1059.43 162.926C1060.04 162.26 1060.34 161.549 1060.34 160.769L1060.34 146.529C1060.34 145.757 1060.04 145.068 1059.43 144.455C1058.84 143.858 1058.09 143.555 1057.21 143.555Z" fill="#ffffff" fill-rule="nonzero" opacity="1" stroke="none" vectornator:layerName="path"/>
<path d="M978.551 143.555L901.718 143.555C900.947 143.555 900.25 143.835 899.645 144.38C899.04 144.932 898.737 145.651 898.737 146.529L898.737 160.769C898.737 161.654 899.04 162.396 899.645 163.001C900.25 163.607 900.939 163.909 901.718 163.909L978.551 163.909C979.436 163.909 980.178 163.576 980.783 162.918C981.388 162.252 981.691 161.541 981.691 160.762L981.691 146.521C981.691 145.749 981.388 145.061 980.783 144.448C980.178 143.858 979.436 143.555 978.551 143.555Z" fill="#ffffff" fill-rule="nonzero" opacity="1" stroke="none" vectornator:layerName="path"/>
<path d="M952.718 17.3044C950.032 14.0961 946.839 11.4932 943.282 9.30642C943.108 9.20049 942.919 9.07942 942.73 9.05672C942.548 9.04159 942.299 9.10212 942.178 9.22319C941.951 9.46532 941.769 9.76042 941.61 10.0555C940.717 11.7278 939.832 13.4151 938.947 15.0949C931.251 29.6003 923.715 44.1965 915.914 58.6565C912.206 65.527 908.627 72.4657 904.995 79.3741C903.285 82.6202 901.734 85.942 900.402 89.3546C898.495 94.2427 897.035 99.2443 896.376 104.465C895.612 110.504 896.18 116.383 898.329 122.096C898.593 122.792 898.881 123.488 899.214 124.154C901.022 127.763 903.353 131.002 906.168 133.892C908.173 135.958 910.518 137.555 912.985 139.015C913.19 138.879 913.401 138.811 913.5 138.659C913.757 138.266 913.969 137.834 914.188 137.411C925.576 115.793 936.964 94.1746 948.344 72.5565C948.632 72.0193 948.889 71.4669 949.154 70.9145C949.563 70.0595 949.933 69.1818 950.372 68.3419C952.234 64.7931 953.959 61.1838 955.404 57.4382C957.326 52.482 958.809 47.4199 959.415 42.1157C959.8 38.7258 959.823 35.351 959.309 31.9687C958.484 26.4601 956.289 21.5721 952.718 17.3044Z" fill="#ffffff" fill-rule="nonzero" opacity="1" stroke="none" vectornator:layerName="path"/>
<path d="M897.708 64.899C898.571 65.8902 900.266 65.8902 901.136 64.8839C901.446 64.5282 901.688 64.1121 901.915 63.7035C904.064 59.7763 906.213 55.8492 908.339 51.9145C908.657 51.3243 908.937 50.6963 909.164 50.0607C909.694 48.6155 909.709 47.1475 909.255 45.672C908.96 44.6959 908.544 43.7728 908.059 42.8723C905.986 38.983 903.913 35.0938 901.855 31.1969C900.076 27.8448 898.313 24.4777 896.528 21.1256C896.21 20.5278 895.869 19.9376 895.491 19.3777C895.022 18.6664 894.348 18.2124 893.493 18.1141C892.752 18.0308 892.01 17.9552 891.269 17.9476C888.825 17.9249 886.388 17.94 883.944 17.94L883.944 17.94C881.568 17.94 879.2 17.94 876.824 17.94C876.347 17.94 875.871 17.9173 875.401 17.9703C875.008 18.0157 874.599 18.1216 874.229 18.273C873.691 18.4924 873.389 18.9388 873.305 19.5139C873.23 20.0663 873.283 20.6035 873.532 21.1029C873.812 21.6477 874.1 22.185 874.395 22.7146C881.606 35.8504 888.817 48.9862 896.028 62.1145C896.354 62.7122 896.664 63.31 897.004 63.9002C897.216 64.2483 897.443 64.5963 897.708 64.899Z" fill="#ffffff" fill-rule="nonzero" opacity="1" stroke="none" vectornator:layerName="path"/>
<path d="M1029.94 70.2941C1024.72 67.8198 1017.94 65.1487 1009.63 62.2961C1007.36 61.3881 1004.85 60.2984 1002.08 59.0348C997.43 56.9086 994.312 55.3347 992.746 54.3208C988.819 51.854 986.859 48.9333 986.859 45.5736C986.859 43.4474 987.729 41.3439 989.469 39.263C991.21 37.1897 993.593 35.4191 996.62 33.9587C1000.66 32.3924 1004.97 31.6055 1009.57 31.6055C1013.5 31.6055 1017.43 32.1654 1021.36 33.2853C1024.72 34.1857 1028.7 35.9185 1033.3 38.4988C1033.86 38.8393 1034.42 39.0057 1034.98 39.0057C1035.66 39.0057 1036.16 38.8393 1036.5 38.4988L1036.66 38.3323C1036.63 38.3323 1036.62 38.3474 1036.59 38.355L1038.51 35.6386C1041.76 31.038 1043.67 28.1248 1044.23 26.8914C1044.34 26.672 1044.23 26.2785 1043.89 25.711C1043.56 25.1511 1043.1 24.6441 1042.54 24.1977C1039.52 21.6175 1036.25 19.4307 1032.78 17.6374C1029.07 15.8895 1024.71 14.5728 1019.71 13.6724C1014.05 12.4088 1008.76 12.1818 1003.98 12.5752C1003.82 12.5828 1003.66 12.5828 1003.5 12.5904C1003.07 12.6358 1002.65 12.6963 1002.23 12.7493C1001.89 12.7871 1001.55 12.8325 1001.21 12.8779C1001.16 12.8855 1001.11 12.893 1001.05 12.9006C992.882 14.0356 986.443 16.8807 982.531 19.0221C981.691 19.4761 980.889 19.9452 980.109 20.4446C978.944 21.1786 978.316 21.6629 978.316 21.6629L978.316 21.6629C975.486 23.721 973.11 26.1045 971.188 28.8134C968.926 31.999 967.42 35.5024 966.656 39.3311C965.975 41.7449 965.634 44.2192 965.634 46.754C965.634 52.028 967.201 57.1356 970.348 62.0691C972.929 65.7692 976.886 68.8867 982.213 71.4064C987.442 73.8807 994.214 76.5517 1002.52 79.4044C1004.79 80.3124 1007.3 81.402 1010.07 82.6656C1014.73 84.7919 1017.84 86.3658 1019.41 87.3797C1023.34 89.8464 1025.3 92.7672 1025.3 96.1268C1025.3 98.253 1024.43 100.357 1022.69 102.437C1020.95 104.511 1018.56 106.281 1015.54 107.742C1011.5 109.308 1007.18 110.095 1002.58 110.095C998.655 110.095 994.728 109.535 990.801 108.415C987.434 107.515 983.454 105.782 978.853 103.202C978.293 102.861 977.734 102.695 977.174 102.695C976.5 102.695 975.993 102.861 975.66 103.202L975.494 103.368C975.524 103.368 975.539 103.353 975.562 103.345L973.648 106.062C970.394 110.662 968.487 113.576 967.927 114.809C967.814 115.028 967.927 115.422 968.268 115.989C968.601 116.549 969.055 117.056 969.614 117.503C972.641 120.083 975.902 122.27 979.376 124.063C983.189 125.856 987.676 127.203 992.837 128.104C997.997 129.004 1003.27 129.337 1008.65 129.118C1016.06 128.331 1022.62 126.28 1028.34 122.973C1034.06 119.667 1038.52 115.543 1041.72 110.602C1044.92 105.661 1046.51 100.447 1046.51 94.954C1046.51 89.68 1044.95 84.5724 1041.8 79.6389C1039.23 75.9313 1035.28 72.8213 1029.94 70.2941Z" fill="#ffffff" fill-rule="nonzero" opacity="1" stroke="none" vectornator:layerName="path"/>
<path d="M854.351 70.2638C849.122 67.7895 842.35 65.1184 834.042 62.2658C831.772 61.3578 829.26 60.2682 826.49 59.0045C821.837 56.8783 818.719 55.3044 817.153 54.2905C813.226 51.8237 811.266 48.903 811.266 45.5434C811.266 43.4171 812.136 41.3136 813.877 39.2327C815.617 37.1595 818 35.3889 821.027 33.9285C825.068 32.3622 829.381 31.5752 833.981 31.5752C837.908 31.5752 841.835 32.1352 845.763 33.255C849.13 34.1555 853.11 35.8883 857.71 38.4685C858.27 38.809 858.83 38.9755 859.39 38.9755C860.064 38.9755 860.571 38.809 860.904 38.4685L861.07 38.302C861.04 38.302 861.025 38.3172 861.002 38.3247L862.916 35.6083C866.17 31.0077 868.077 28.0946 868.637 26.8612C868.75 26.6417 868.637 26.2483 868.296 25.6808C867.963 25.1208 867.509 24.6139 866.949 24.1674C863.923 21.5872 860.661 19.4004 857.188 17.6071C853.375 15.8138 848.888 14.4669 843.727 13.5665C838.567 12.666 833.293 12.3331 827.913 12.5525C820.505 13.3395 813.945 15.3901 808.224 18.6967C802.504 22.0034 798.039 26.1272 794.846 31.0683C791.646 36.0093 790.049 41.2228 790.049 46.7162C790.049 51.9902 791.615 57.0977 794.763 62.0312C797.343 65.7313 801.301 68.8488 806.628 71.3685C811.856 73.8429 818.628 76.5139 826.937 79.3665C829.207 80.2746 831.719 81.3642 834.488 82.6278C839.142 84.754 842.259 86.3279 843.826 87.3419C847.753 89.8086 849.712 92.7294 849.712 96.089C849.712 98.2152 848.842 100.319 847.102 102.4C845.362 104.473 842.978 106.243 839.951 107.704C835.911 109.27 831.598 110.057 826.997 110.057C823.07 110.057 819.143 109.497 815.216 108.377C811.849 107.477 807.869 105.744 803.268 103.164C802.708 102.823 802.148 102.657 801.588 102.657C800.915 102.657 800.408 102.823 800.075 103.164L799.908 103.33C799.939 103.33 799.954 103.315 799.976 103.308L798.062 106.024C794.808 110.625 792.902 113.538 792.342 114.771C792.228 114.991 792.342 115.384 792.682 115.952C793.015 116.512 793.469 117.018 794.029 117.465C797.056 120.045 800.317 122.232 803.79 124.025C807.505 125.773 811.864 127.09 816.858 127.99C822.518 129.254 827.807 129.481 832.589 129.087C832.748 129.08 832.907 129.08 833.073 129.072C833.497 129.027 833.921 128.966 834.337 128.913C834.677 128.876 835.018 128.83 835.358 128.785C835.411 128.777 835.464 128.77 835.517 128.762C843.689 127.627 850.129 124.782 854.041 122.641C854.88 122.187 855.683 121.717 856.462 121.218C857.627 120.484 858.255 120 858.255 120L858.255 120C861.085 117.942 863.461 115.558 865.383 112.849C867.646 109.664 869.151 106.16 869.916 102.331C870.597 99.9177 870.937 97.4434 870.937 94.9086C870.937 89.6346 869.371 84.527 866.223 79.5935C863.628 75.901 859.678 72.7911 854.351 70.2638Z" fill="#ffffff" fill-rule="nonzero" opacity="1" stroke="none" vectornator:layerName="path"/>
<path d="M1040.48 337.384C1037.9 333.684 1033.95 330.566 1028.62 328.046C1023.39 325.572 1016.62 322.901 1008.31 320.048C1006.04 319.14 1003.53 318.051 1000.76 316.787C996.105 314.661 992.988 313.087 991.422 312.073C987.495 309.606 985.535 306.686 985.535 303.326C985.535 301.2 986.405 299.096 988.145 297.015C989.886 294.942 992.269 293.171 995.296 291.711C999.336 290.145 1003.65 289.358 1008.25 289.358C1012.18 289.358 1016.1 289.918 1020.03 291.038C1023.4 291.938 1027.38 293.671 1031.98 296.251C1032.54 296.592 1033.1 296.758 1033.66 296.758C1034.33 296.758 1034.84 296.592 1035.17 296.251L1035.34 296.085C1035.31 296.085 1035.29 296.1 1035.27 296.107L1037.19 293.391C1040.44 288.79 1042.35 285.877 1042.91 284.644C1043.02 284.424 1042.91 284.031 1042.57 283.463C1042.23 282.903 1041.78 282.396 1041.22 281.95C1038.19 279.37 1034.93 277.183 1031.46 275.39C1027.74 273.642 1023.38 272.325 1018.39 271.425C1012.73 270.161 1007.44 269.934 1002.66 270.327C1002.5 270.335 1002.34 270.335 1002.17 270.343C1001.75 270.388 1001.33 270.449 1000.91 270.502C1000.57 270.539 1000.23 270.585 999.889 270.63C999.836 270.638 999.783 270.645 999.73 270.653C991.558 271.788 985.119 274.633 981.207 276.774C980.367 277.228 979.565 277.697 978.785 278.197C977.62 278.931 976.992 279.415 976.992 279.415L976.992 279.415C974.162 281.473 971.786 283.857 969.864 286.566C967.602 289.751 966.096 293.255 965.332 297.083C964.651 299.497 964.31 301.971 964.31 304.506C964.31 309.78 965.877 314.888 969.024 319.821C971.604 323.521 975.562 326.639 980.889 329.159C986.117 331.633 992.89 334.304 1001.2 337.157C1003.47 338.065 1005.98 339.154 1008.75 340.418C1013.4 342.544 1016.52 344.118 1018.09 345.132C1022.01 347.599 1023.97 350.519 1023.97 353.879C1023.97 356.005 1023.1 358.109 1021.36 360.19C1019.62 362.263 1017.24 364.034 1014.21 365.494C1010.17 367.06 1005.86 367.847 1001.26 367.847C997.331 367.847 993.404 367.287 989.477 366.167C986.11 365.267 982.13 363.534 977.529 360.954C976.969 360.613 976.409 360.447 975.849 360.447C975.176 360.447 974.669 360.613 974.336 360.954L974.17 361.12C974.2 361.12 974.215 361.105 974.238 361.098L972.323 363.814C969.07 368.415 967.163 371.328 966.603 372.561C966.489 372.781 966.603 373.174 966.943 373.742C967.276 374.302 967.73 374.809 968.29 375.255C971.317 377.835 974.578 380.022 978.051 381.815C981.865 383.609 986.352 384.956 991.513 385.856C996.673 386.756 1001.95 387.089 1007.33 386.87C1014.73 386.083 1021.3 384.032 1027.02 380.726C1032.74 377.419 1037.2 373.295 1040.39 368.354C1043.59 363.413 1045.19 358.2 1045.19 352.706C1045.19 347.425 1043.62 342.317 1040.48 337.384Z" fill="#ffffff" fill-rule="nonzero" opacity="1" stroke="none" vectornator:layerName="path"/>
</g>
</g>
</svg>
