<?xml version="1.0" encoding="UTF-8" standalone="no"?>
<!DOCTYPE svg PUBLIC "-//W3C//DTD SVG 1.1//EN" "http://www.w3.org/Graphics/SVG/1.1/DTD/svg11.dtd">
<!-- Created with Vectornator (http://vectornator.io/) -->
<svg height="100%" stroke-miterlimit="10" style="fill-rule:nonzero;clip-rule:evenodd;stroke-linecap:round;stroke-linejoin:round;" version="1.1" viewBox="0 0 1584 396" width="100%" xml:space="preserve" xmlns="http://www.w3.org/2000/svg" xmlns:vectornator="http://vectornator.io" xmlns:xlink="http://www.w3.org/1999/xlink">
<defs/>
<path d="M0 0L1584 0L1584 396L0 396L0 0Z" fill="#3facaf" fill-rule="nonzero" opacity="1" stroke="none"/>
<g id="Untitled" vectornator:layerName="Untitled">
<g opacity="1" vectornator:layerName="g">
<path d="M748.114 60.3927C741.344 52.3068 733.278 45.7361 724.318 40.2193C723.884 39.9507 723.409 39.6338 722.927 39.5925C722.472 39.5512 721.838 39.7027 721.542 40.0126C720.964 40.6187 720.502 41.3695 720.103 42.1133C717.844 46.3422 715.619 50.5918 713.374 54.8207C693.958 91.4139 674.955 128.227 655.285 164.69C645.938 182.019 636.909 199.513 627.742 216.938C623.437 225.127 619.525 233.503 616.157 242.119C611.349 254.44 607.672 267.058 606.005 280.227C604.069 295.462 605.516 310.291 610.922 324.693C611.584 326.456 612.307 328.198 613.147 329.879C617.707 338.984 623.595 347.146 630.683 354.447C635.731 359.654 641.654 363.676 647.881 367.361C648.39 367.023 648.941 366.837 649.189 366.458C649.844 365.46 650.374 364.378 650.932 363.318C679.653 308.79 708.373 254.261 737.087 199.733C737.804 198.37 738.458 196.978 739.126 195.587C740.159 193.424 741.096 191.22 742.205 189.099C746.895 180.145 751.248 171.033 754.898 161.604C759.74 149.11 763.487 136.327 765.023 122.959C766.001 114.411 766.056 105.884 764.761 97.3578C762.66 83.4864 757.123 71.1578 748.114 60.3927Z" fill="#ffffff" fill-rule="nonzero" opacity="1" stroke="none" vectornator:layerName="path"/>
<path d="M609.366 180.441C611.549 182.948 615.813 182.942 618.01 180.4C618.781 179.505 619.408 178.465 619.979 177.418C625.4 167.521 630.813 157.616 636.186 147.685C636.998 146.19 637.687 144.613 638.273 143.008C639.602 139.358 639.643 135.666 638.5 131.933C637.749 129.46 636.702 127.139 635.49 124.873C630.256 115.065 625.042 105.251 619.835 95.4293C615.351 86.9715 610.895 78.493 606.404 70.0352C605.605 68.5268 604.737 67.046 603.794 65.6272C602.602 63.8364 600.915 62.6862 598.752 62.4383C596.886 62.2248 595.012 62.0388 593.132 62.025C586.975 61.9768 580.817 62.0044 574.66 62.0044L574.66 61.9975C568.675 61.9975 562.689 61.9975 556.704 61.9975C555.506 61.9975 554.3 61.9355 553.116 62.0732C552.117 62.1903 551.098 62.4452 550.168 62.8309C548.811 63.3887 548.047 64.5114 547.833 65.9715C547.633 67.3559 547.771 68.7128 548.412 69.9732C549.107 71.3438 549.844 72.7006 550.581 74.0437C568.771 107.172 586.961 140.301 605.144 173.43C605.97 174.931 606.749 176.454 607.616 177.927C608.133 178.802 608.698 179.677 609.366 180.441Z" fill="#ffffff" fill-rule="nonzero" opacity="1" stroke="none" vectornator:layerName="path"/>
</g>
<g opacity="1" vectornator:layerName="g">
<path d="M929.461 327.069C929.358 326.663 929.31 326.16 929.31 325.554C929.31 324.948 929.613 324.445 930.219 324.038C934.365 320.905 937.623 317.013 939.999 312.364C942.375 307.715 943.56 302.763 943.56 297.501C943.56 291.337 942.017 285.675 938.939 280.516C935.853 275.358 931.686 271.267 926.431 268.236C921.176 265.206 915.411 263.69 909.143 263.69L877.757 263.69C876.944 263.69 876.262 263.973 875.711 264.524C875.154 265.082 874.878 265.763 874.878 266.569L874.878 290.985C874.878 291.998 875.257 292.879 876.015 293.637C876.772 294.395 877.654 294.774 878.666 294.774L888.674 294.774C889.783 294.774 890.692 294.395 891.401 293.637C892.104 292.879 892.462 291.998 892.462 290.985L892.462 287.197C892.462 286.185 892.841 285.303 893.598 284.546C894.356 283.788 895.293 283.409 896.401 283.409L909.136 283.409C913.179 283.409 916.589 284.773 919.371 287.5C922.154 290.228 923.545 293.568 923.545 297.508C923.545 301.351 922.154 304.636 919.371 307.364C916.589 310.091 913.179 311.455 909.136 311.455L877.75 311.455C876.937 311.455 876.256 311.737 875.705 312.288C875.147 312.846 874.871 313.528 874.871 314.334L874.871 367.257C874.871 368.07 875.147 368.724 875.705 369.227C876.262 369.737 876.944 369.985 877.75 369.985L889.576 369.985C890.382 369.985 891.064 369.737 891.622 369.227C892.173 368.724 892.455 368.063 892.455 367.257L892.455 333.894C892.455 332.786 892.779 332.049 893.44 331.697C894.094 331.346 895.031 331.167 896.243 331.167L909.13 331.167C910.645 331.167 911.657 331.27 912.16 331.47C912.663 331.677 913.069 332.076 913.372 332.682L929.145 368.166C929.544 368.979 930.026 369.482 930.584 369.682C931.142 369.888 931.975 369.985 933.084 369.985L945.516 369.985C946.928 369.985 947.637 369.427 947.637 368.318C947.637 367.712 947.431 367.058 947.031 366.348L929.461 327.069Z" fill="#ffffff" fill-rule="nonzero" opacity="1" stroke="none" vectornator:layerName="path"/>
<path d="M866.641 351.272L814.447 351.272C813.738 351.272 813.084 350.968 812.478 350.362C811.871 349.756 811.568 349.102 811.568 348.393L811.568 331.849C811.568 329.727 812.732 328.66 815.06 328.66L853.754 328.66C854.464 328.66 855.07 328.433 855.572 327.978C856.075 327.523 856.33 326.945 856.33 326.236L856.33 313.184C856.33 312.474 856.075 311.896 855.572 311.441C855.063 310.987 854.457 310.759 853.754 310.759L815.515 310.759C812.884 310.759 811.568 309.802 811.568 307.874L811.568 296.95C811.568 296.144 811.314 295.483 810.811 294.98C810.301 294.477 809.647 294.223 808.841 294.223L795.941 294.223C795.231 294.223 794.598 294.477 794.047 294.98C793.489 295.49 793.213 296.144 793.213 296.95L793.213 367.051C793.213 367.76 793.489 368.394 794.047 368.945C794.605 369.503 795.231 369.778 795.941 369.778L866.648 369.778C867.453 369.778 868.115 369.503 868.617 368.945C869.12 368.394 869.375 367.76 869.375 367.051L869.375 353.999C869.375 353.193 869.12 352.532 868.617 352.029C868.108 351.526 867.453 351.272 866.641 351.272Z" fill="#ffffff" fill-rule="nonzero" opacity="1" stroke="none" vectornator:layerName="path"/>
<path d="M795.941 282.231L866.344 282.231C867.15 282.231 867.832 281.928 868.39 281.322C868.948 280.716 869.223 280.055 869.223 279.352L869.223 266.301C869.223 265.591 868.941 264.958 868.39 264.407C867.832 263.856 867.15 263.573 866.344 263.573L795.941 263.573C795.231 263.573 794.598 263.828 794.047 264.331C793.489 264.841 793.213 265.495 793.213 266.301L793.213 279.352C793.213 280.165 793.489 280.847 794.047 281.398C794.598 281.956 795.231 282.231 795.941 282.231Z" fill="#ffffff" fill-rule="nonzero" opacity="1" stroke="none" vectornator:layerName="path"/>
<path d="M880.147 148.924L865.057 148.924C864.354 148.924 863.7 149.2 863.094 149.758C862.488 150.309 862.191 150.991 862.191 151.796L862.191 251.982C862.191 252.684 862.467 253.318 863.025 253.869C863.576 254.42 864.258 254.702 865.063 254.702L880.154 254.702C880.96 254.702 881.614 254.427 882.117 253.869C882.62 253.318 882.874 252.691 882.874 251.982L882.874 151.79C882.874 150.984 882.599 150.309 882.048 149.751C881.476 149.2 880.85 148.924 880.147 148.924Z" fill="#ffffff" fill-rule="nonzero" opacity="1" stroke="none" vectornator:layerName="path"/>
<path d="M952.438 175.958L908.406 175.958C907.235 176.144 904.639 176.853 904.109 179.553L904.109 195.787C904.122 195.924 904.136 196.069 904.136 196.214L904.136 210.333L904.109 210.333L904.109 252.113C904.109 252.781 904.37 253.387 904.901 253.91C905.424 254.44 906.071 254.702 906.843 254.702L921.21 254.702C921.975 254.702 922.595 254.44 923.077 253.91C923.552 253.387 923.793 252.787 923.793 252.113L923.793 214.893L923.814 214.893L923.814 196.214C923.814 195.367 924.13 194.623 924.764 193.962C925.398 193.307 926.162 192.977 927.071 192.977L952.438 192.977C952.893 192.977 953.299 192.791 953.657 192.412C954.015 192.04 954.201 191.565 954.201 191.007L954.201 177.921C954.201 177.356 954.022 176.887 953.657 176.516C953.292 176.144 952.886 175.958 952.438 175.958Z" fill="#ffffff" fill-rule="nonzero" opacity="1" stroke="none" vectornator:layerName="path"/>
<path d="M852.273 235.555L817.03 235.555C816.252 235.555 815.577 235.231 814.991 234.577C814.406 233.923 814.117 233.199 814.117 232.394L814.117 152.223C814.117 151.418 813.827 150.694 813.242 150.04C812.657 149.386 811.933 149.062 811.059 149.062L795.328 149.062C794.549 149.062 793.847 149.393 793.213 150.04C792.58 150.694 792.27 151.424 792.27 152.223L792.27 251.527C792.27 252.429 792.587 253.187 793.213 253.786C793.847 254.392 794.549 254.688 795.328 254.688L852.273 254.688C853.148 254.688 853.878 254.385 854.457 253.786C855.042 253.18 855.331 252.429 855.331 251.527L855.331 238.565C855.331 237.759 855.042 237.056 854.457 236.457C853.878 235.858 853.148 235.555 852.273 235.555Z" fill="#ffffff" fill-rule="nonzero" opacity="1" stroke="none" vectornator:layerName="path"/>
<path d="M1033.4 148.442L973.596 148.442C972.894 148.442 972.26 148.697 971.709 149.193C971.158 149.696 970.883 150.35 970.883 151.149L970.883 164.111C970.883 164.917 971.158 165.592 971.709 166.143C972.26 166.694 972.887 166.97 973.596 166.97L983.273 166.97C984.231 166.997 985.05 167.314 985.732 167.948C986.441 168.609 986.793 169.442 986.793 170.448L986.793 252.595C986.793 253.91 987.447 254.564 988.763 254.564L1006.79 254.564C1007.3 254.564 1007.75 254.392 1008.16 254.034C1008.56 253.683 1008.76 253.201 1008.76 252.595L1008.76 170.455C1008.76 169.545 1009.12 168.74 1009.82 168.03C1010.51 167.348 1011.33 167.004 1012.29 166.976L1033.39 166.976C1034.2 166.976 1034.87 166.673 1035.43 166.074C1035.98 165.468 1036.25 164.821 1036.25 164.111L1036.25 151.149C1036.25 150.446 1035.98 149.82 1035.43 149.262C1034.89 148.718 1034.21 148.442 1033.4 148.442Z" fill="#ffffff" fill-rule="nonzero" opacity="1" stroke="none" vectornator:layerName="path"/>
<path d="M961.805 148.442L891.869 148.442C891.167 148.442 890.533 148.697 889.982 149.193C889.431 149.696 889.156 150.35 889.156 151.149L889.156 164.111C889.156 164.917 889.431 165.592 889.982 166.143C890.533 166.694 891.16 166.97 891.869 166.97L961.805 166.97C962.611 166.97 963.286 166.666 963.837 166.067C964.388 165.461 964.663 164.814 964.663 164.104L964.663 151.142C964.663 150.44 964.388 149.813 963.837 149.255C963.286 148.718 962.611 148.442 961.805 148.442Z" fill="#ffffff" fill-rule="nonzero" opacity="1" stroke="none" vectornator:layerName="path"/>
<path d="M938.291 33.5246C935.846 30.6043 932.94 28.2351 929.702 26.2446C929.544 26.1481 929.372 26.0379 929.2 26.0173C929.034 26.0035 928.807 26.0586 928.697 26.1688C928.49 26.3892 928.325 26.6578 928.18 26.9264C927.368 28.4486 926.562 29.9845 925.756 31.5135C918.751 44.7168 911.891 58.0027 904.79 71.1647C901.416 77.4185 898.158 83.7343 894.852 90.0226C893.295 92.9773 891.883 96.0009 890.671 99.1072C888.935 103.557 887.606 108.109 887.007 112.861C886.311 118.358 886.828 123.709 888.784 128.909C889.025 129.543 889.287 130.177 889.59 130.783C891.236 134.068 893.357 137.016 895.919 139.647C897.745 141.527 899.88 142.98 902.125 144.31C902.311 144.186 902.504 144.124 902.593 143.986C902.827 143.628 903.02 143.235 903.22 142.85C913.586 123.172 923.951 103.495 934.31 83.817C934.572 83.328 934.806 82.8252 935.047 82.3224C935.419 81.5441 935.756 80.7452 936.156 79.9807C937.85 76.7504 939.421 73.4651 940.736 70.0558C942.486 65.5445 943.836 60.9368 944.387 56.1087C944.738 53.0231 944.758 49.9513 944.29 46.8726C943.539 41.8585 941.542 37.4092 938.291 33.5246Z" fill="#ffffff" fill-rule="nonzero" opacity="1" stroke="none" vectornator:layerName="path"/>
<path d="M888.219 76.8469C889.004 77.7491 890.547 77.7491 891.339 76.8331C891.622 76.5094 891.842 76.1306 892.049 75.7586C894.005 72.184 895.961 68.6094 897.896 65.028C898.185 64.4907 898.44 63.9191 898.647 63.3405C899.129 62.025 899.143 60.6888 898.729 59.3458C898.461 58.4573 898.082 57.617 897.641 56.7974C895.754 53.2573 893.867 49.7171 891.993 46.17C890.375 43.1189 888.77 40.054 887.145 37.0028C886.855 36.4587 886.545 35.9215 886.201 35.4118C885.774 34.7644 885.161 34.3511 884.383 34.2616C883.708 34.1858 883.033 34.117 882.358 34.1101C880.133 34.0894 877.915 34.1032 875.691 34.1032L875.691 34.1032C873.528 34.1032 871.372 34.1032 869.21 34.1032C868.776 34.1032 868.342 34.0825 867.915 34.1307C867.557 34.1721 867.185 34.2685 866.847 34.4062C866.358 34.606 866.083 35.0123 866.007 35.5358C865.938 36.0386 865.986 36.5276 866.214 36.9822C866.468 37.478 866.73 37.9671 866.999 38.4492C873.563 50.4058 880.126 62.3625 886.69 74.3123C886.986 74.8564 887.269 75.4005 887.579 75.9377C887.771 76.2545 887.978 76.5714 888.219 76.8469Z" fill="#ffffff" fill-rule="nonzero" opacity="1" stroke="none" vectornator:layerName="path"/>
<path d="M1008.58 81.7576C1003.83 79.5054 997.661 77.0742 990.099 74.4776C988.032 73.6511 985.746 72.6593 983.225 71.5091C978.989 69.5737 976.152 68.1411 974.726 67.2182C971.151 64.9729 969.367 62.3143 969.367 59.2563C969.367 57.3209 970.159 55.4062 971.744 53.5121C973.328 51.6249 975.497 50.0133 978.252 48.684C981.93 47.2583 985.856 46.542 990.044 46.542C993.618 46.542 997.193 47.0516 1000.77 48.071C1003.83 48.8906 1007.46 50.4678 1011.64 52.8165C1012.15 53.1264 1012.66 53.2779 1013.17 53.2779C1013.78 53.2779 1014.25 53.1264 1014.55 52.8165L1014.7 52.6649C1014.67 52.6649 1014.66 52.6787 1014.64 52.6856L1016.38 50.213C1019.34 46.0254 1021.08 43.3737 1021.59 42.2511C1021.69 42.0513 1021.59 41.6932 1021.28 41.1766C1020.98 40.667 1020.56 40.2055 1020.05 39.7991C1017.3 37.4505 1014.33 35.46 1011.17 33.8277C1007.79 32.2367 1003.82 31.0383 999.273 30.2186C994.121 29.0684 989.307 28.8618 984.954 29.22C984.809 29.2269 984.664 29.2269 984.513 29.2337C984.127 29.2751 983.742 29.3302 983.363 29.3784C983.053 29.4128 982.743 29.4541 982.433 29.4955C982.385 29.5024 982.337 29.5092 982.288 29.5161C974.85 30.5492 968.989 33.1389 965.428 35.0881C964.663 35.5013 963.933 35.9284 963.224 36.3829C962.163 37.051 961.591 37.4918 961.591 37.4918L961.591 37.4918C959.016 39.3652 956.853 41.5348 955.103 44.0005C953.044 46.9001 951.673 50.089 950.978 53.5741C950.358 55.7712 950.048 58.0234 950.048 60.3307C950.048 65.1313 951.474 69.7803 954.339 74.271C956.688 77.6389 960.29 80.4766 965.138 82.7701C969.898 85.0223 976.062 87.4536 983.624 90.0502C985.691 90.8767 987.977 91.8685 990.498 93.0187C994.734 94.954 997.572 96.3866 998.997 97.3096C1002.57 99.5549 1004.36 102.213 1004.36 105.271C1004.36 107.207 1003.56 109.122 1001.98 111.016C1000.4 112.903 998.226 114.514 995.471 115.844C991.793 117.269 987.867 117.986 983.68 117.986C980.105 117.986 976.53 117.476 972.956 116.457C969.891 115.637 966.268 114.06 962.08 111.711C961.571 111.401 961.061 111.25 960.551 111.25C959.938 111.25 959.477 111.401 959.174 111.711L959.022 111.863C959.05 111.863 959.064 111.849 959.084 111.842L957.342 114.315C954.38 118.502 952.645 121.154 952.135 122.277C952.032 122.476 952.135 122.835 952.445 123.351C952.748 123.861 953.161 124.322 953.671 124.729C956.426 127.077 959.394 129.068 962.556 130.7C966.027 132.332 970.111 133.558 974.808 134.378C979.506 135.198 984.306 135.501 989.203 135.301C995.946 134.585 1001.92 132.718 1007.12 129.708C1012.33 126.698 1016.4 122.945 1019.3 118.447C1022.21 113.95 1023.67 109.204 1023.67 104.204C1023.67 99.4034 1022.24 94.7543 1019.38 90.2637C1017.04 86.8888 1013.44 84.0581 1008.58 81.7576Z" fill="#ffffff" fill-rule="nonzero" opacity="1" stroke="none" vectornator:layerName="path"/>
<path d="M848.754 81.7301C843.995 79.4779 837.83 77.0466 830.268 74.45C828.202 73.6235 825.915 72.6317 823.394 71.4815C819.158 69.5461 816.321 68.1135 814.895 67.1906C811.32 64.9453 809.537 62.2867 809.537 59.2287C809.537 57.2933 810.329 55.3786 811.913 53.4845C813.497 51.5974 815.666 49.9857 818.421 48.6564C822.099 47.2307 826.025 46.5144 830.213 46.5144C833.787 46.5144 837.362 47.0241 840.937 48.0434C844.002 48.863 847.624 50.4403 851.812 52.7889C852.322 53.0988 852.831 53.2504 853.341 53.2504C853.954 53.2504 854.415 53.0988 854.718 52.7889L854.87 52.6374C854.842 52.6374 854.829 52.6512 854.808 52.658L856.551 50.1854C859.512 45.9979 861.248 43.3462 861.757 42.2235C861.861 42.0238 861.757 41.6656 861.448 41.1491C861.144 40.6394 860.731 40.1779 860.222 39.7716C857.467 37.4229 854.498 35.4325 851.337 33.8001C847.865 32.1678 843.781 30.9418 839.084 30.1222C834.387 29.3026 829.586 28.9996 824.689 29.1993C817.946 29.9156 811.975 31.7821 806.768 34.7919C801.561 37.8018 797.497 41.5554 794.591 46.053C791.677 50.5505 790.224 55.296 790.224 60.2963C790.224 65.0968 791.65 69.7459 794.515 74.2365C796.864 77.6045 800.466 80.4421 805.315 82.7357C810.074 84.9879 816.238 87.4191 823.801 90.0157C825.867 90.8422 828.153 91.834 830.674 92.9842C834.91 94.9196 837.748 96.3522 839.173 97.2751C842.748 99.5204 844.532 102.179 844.532 105.237C844.532 107.172 843.74 109.087 842.156 110.981C840.572 112.868 838.402 114.48 835.647 115.809C831.969 117.235 828.043 117.951 823.856 117.951C820.281 117.951 816.706 117.442 813.132 116.422C810.067 115.603 806.444 114.025 802.257 111.677C801.747 111.367 801.237 111.215 800.728 111.215C800.115 111.215 799.653 111.367 799.35 111.677L799.198 111.828C799.226 111.828 799.24 111.815 799.26 111.808L797.518 114.28C794.556 118.468 792.821 121.12 792.311 122.242C792.208 122.442 792.311 122.8 792.621 123.317C792.924 123.826 793.337 124.288 793.847 124.694C796.602 127.043 799.57 129.033 802.732 130.666C806.114 132.257 810.081 133.455 814.626 134.275C819.778 135.425 824.593 135.631 828.945 135.273C829.09 135.266 829.235 135.266 829.386 135.26C829.772 135.218 830.158 135.163 830.537 135.115C830.846 135.08 831.156 135.039 831.466 134.998C831.515 134.991 831.563 134.984 831.611 134.977C839.049 133.944 844.911 131.354 848.471 129.405C849.236 128.992 849.966 128.565 850.675 128.11C851.736 127.442 852.308 127.001 852.308 127.001L852.308 127.001C854.884 125.128 857.046 122.959 858.796 120.493C860.855 117.593 862.226 114.404 862.921 110.919C863.541 108.722 863.851 106.47 863.851 104.163C863.851 99.362 862.426 94.713 859.56 90.2224C857.198 86.8613 853.603 84.0305 848.754 81.7301Z" fill="#ffffff" fill-rule="nonzero" opacity="1" stroke="none" vectornator:layerName="path"/>
<path d="M1018.18 324.872C1015.83 321.504 1012.23 318.666 1007.38 316.373C1002.62 314.12 996.456 311.689 988.893 309.093C986.827 308.266 984.54 307.274 982.02 306.124C977.784 304.189 974.946 302.756 973.521 301.833C969.946 299.588 968.162 296.929 968.162 293.871C968.162 291.936 968.954 290.021 970.538 288.127C972.122 286.24 974.292 284.628 977.047 283.299C980.725 281.873 984.651 281.157 988.838 281.157C992.413 281.157 995.987 281.667 999.562 282.686C1002.63 283.506 1006.25 285.083 1010.44 287.431C1010.95 287.741 1011.46 287.893 1011.97 287.893C1012.58 287.893 1013.04 287.741 1013.34 287.431L1013.5 287.28C1013.47 287.28 1013.45 287.294 1013.43 287.301L1015.18 284.828C1018.14 280.64 1019.87 277.989 1020.38 276.866C1020.49 276.666 1020.38 276.308 1020.07 275.792C1019.77 275.282 1019.36 274.821 1018.85 274.414C1016.09 272.066 1013.12 270.075 1009.96 268.443C1006.58 266.852 1002.61 265.653 998.068 264.834C992.916 263.683 988.101 263.477 983.748 263.835C983.604 263.842 983.459 263.842 983.308 263.849C982.922 263.89 982.536 263.945 982.157 263.993C981.847 264.028 981.538 264.069 981.228 264.11C981.179 264.117 981.131 264.124 981.083 264.131C973.645 265.164 967.783 267.754 964.222 269.703C963.458 270.116 962.728 270.543 962.018 270.998C960.958 271.666 960.386 272.107 960.386 272.107L960.386 272.107C957.81 273.98 955.648 276.15 953.898 278.616C951.839 281.515 950.468 284.704 949.773 288.189C949.153 290.386 948.843 292.638 948.843 294.946C948.843 299.746 950.268 304.395 953.134 308.886C955.482 312.254 959.084 315.092 963.933 317.385C968.692 319.637 974.857 322.069 982.419 324.665C984.485 325.492 986.772 326.483 989.293 327.634C993.529 329.569 996.366 331.002 997.792 331.925C1001.37 334.17 1003.15 336.828 1003.15 339.887C1003.15 341.822 1002.36 343.737 1000.77 345.631C999.19 347.518 997.021 349.13 994.266 350.459C990.588 351.885 986.662 352.601 982.474 352.601C978.9 352.601 975.325 352.091 971.75 351.072C968.686 350.252 965.063 348.675 960.875 346.326C960.365 346.016 959.856 345.865 959.346 345.865C958.733 345.865 958.272 346.016 957.969 346.326L957.817 346.478C957.845 346.478 957.858 346.464 957.879 346.457L956.137 348.93C953.175 353.117 951.439 355.769 950.93 356.892C950.826 357.091 950.93 357.45 951.24 357.966C951.543 358.476 951.956 358.937 952.466 359.344C955.221 361.692 958.189 363.683 961.35 365.315C964.822 366.947 968.906 368.173 973.603 368.993C978.3 369.813 983.101 370.116 987.998 369.916C994.741 369.2 1000.71 367.333 1005.92 364.323C1011.13 361.313 1015.19 357.56 1018.1 353.062C1021.01 348.565 1022.46 343.819 1022.46 338.819C1022.46 334.011 1021.04 329.362 1018.18 324.872Z" fill="#ffffff" fill-rule="nonzero" opacity="1" stroke="none" vectornator:layerName="path"/>
</g>
</g>
</svg>
