<?xml version="1.0" encoding="UTF-8" standalone="no"?>
<!DOCTYPE svg PUBLIC "-//W3C//DTD SVG 1.1//EN" "http://www.w3.org/Graphics/SVG/1.1/DTD/svg11.dtd">
<!-- Created with Vectornator (http://vectornator.io/) -->
<svg height="100%" stroke-miterlimit="10" style="fill-rule:nonzero;clip-rule:evenodd;stroke-linecap:round;stroke-linejoin:round;" version="1.1" viewBox="0 0 1190.55 841.89" width="100%" xml:space="preserve" xmlns="http://www.w3.org/2000/svg" xmlns:vectornator="http://vectornator.io" xmlns:xlink="http://www.w3.org/1999/xlink">
<defs/>
<path d="M0 0L1190.55 0L1190.55 841.89L0 841.89L0 0Z" fill="#3facaf" fill-rule="nonzero" opacity="1" stroke="none"/>
<g id="Untitled" vectornator:layerName="Untitled">
<g opacity="1" vectornator:layerName="g">
<path d="M492.482 98.6305C476.624 79.691 457.733 64.3008 436.745 51.3787C435.728 50.7496 434.615 50.0075 433.486 49.9107C432.421 49.8139 430.937 50.1688 430.243 50.8947C428.888 52.3144 427.807 54.0728 426.872 55.8151C421.58 65.7204 416.369 75.6741 411.11 85.5794C365.633 171.291 321.124 257.518 275.05 342.923C253.158 383.512 232.008 424.488 210.536 465.303C200.454 484.485 191.29 504.102 183.402 524.283C172.141 553.144 163.527 582.699 159.622 613.544C155.089 649.229 158.477 683.962 171.141 717.695C172.69 721.824 174.384 725.906 176.352 729.842C187.031 751.169 200.825 770.286 217.425 787.386C229.25 799.583 243.124 809.004 257.707 817.635C258.901 816.844 260.192 816.409 260.773 815.521C262.305 813.182 263.547 810.649 264.854 808.165C332.126 680.445 399.398 552.725 466.654 425.005C468.332 421.811 469.864 418.552 471.429 415.293C473.849 410.227 476.043 405.065 478.64 400.096C489.627 379.124 499.822 357.781 508.372 335.696C519.713 306.432 528.489 276.49 532.087 245.177C534.378 225.157 534.507 205.185 531.474 185.213C526.554 152.722 513.583 123.845 492.482 98.6305Z" fill="#ffffff" fill-rule="nonzero" opacity="1" stroke="none" vectornator:layerName="path"/>
<path d="M167.495 379.818C172.609 385.69 182.595 385.674 187.741 379.721C189.548 377.624 191.016 375.188 192.355 372.736C205.051 349.554 217.731 326.355 230.315 303.092C232.218 299.592 233.831 295.897 235.203 292.138C238.316 283.588 238.413 274.941 235.735 266.198C233.977 260.406 231.525 254.969 228.685 249.662C216.425 226.689 204.212 203.701 192.016 180.696C181.514 160.885 171.076 141.026 160.558 121.216C158.687 117.683 156.654 114.214 154.444 110.891C151.653 106.697 147.701 104.003 142.635 103.422C138.263 102.922 133.875 102.486 129.471 102.454C115.049 102.341 100.626 102.405 86.204 102.405L86.204 102.389C72.1849 102.389 58.1659 102.389 44.1469 102.389C41.3398 102.389 38.5167 102.244 35.7419 102.567C33.4027 102.841 31.0151 103.438 28.8372 104.341C25.6591 105.648 23.8685 108.278 23.3684 111.698C22.9005 114.94 23.2232 118.118 24.7235 121.071C26.3528 124.281 28.079 127.459 29.8052 130.605C72.4108 208.202 115.016 285.798 157.606 363.395C159.542 366.912 161.365 370.477 163.397 373.93C164.607 375.978 165.93 378.027 167.495 379.818Z" fill="#ffffff" fill-rule="nonzero" opacity="1" stroke="none" vectornator:layerName="path"/>
</g>
<g opacity="1" vectornator:layerName="g">
<path d="M917.248 723.26C917.006 722.308 916.893 721.131 916.893 719.711C916.893 718.291 917.603 717.114 919.022 716.162C928.734 708.822 936.364 699.707 941.93 688.818C947.496 677.928 950.271 666.329 950.271 654.004C950.271 639.565 946.657 626.305 939.446 614.221C932.218 602.138 922.458 592.556 910.149 585.457C897.84 578.359 884.338 574.81 869.657 574.81L796.142 574.81C794.238 574.81 792.641 575.471 791.35 576.762C790.044 578.069 789.398 579.666 789.398 581.553L789.398 638.743C789.398 641.114 790.286 643.179 792.06 644.954C793.835 646.728 795.9 647.615 798.271 647.615L821.712 647.615C824.309 647.615 826.438 646.728 828.1 644.954C829.746 643.179 830.584 641.114 830.584 638.743L830.584 629.87C830.584 627.498 831.472 625.433 833.246 623.659C835.021 621.884 837.215 620.997 839.812 620.997L869.641 620.997C879.111 620.997 887.096 624.191 893.614 630.58C900.131 636.968 903.39 644.792 903.39 654.02C903.39 663.022 900.131 670.717 893.614 677.105C887.096 683.494 879.111 686.688 869.641 686.688L796.126 686.688C794.222 686.688 792.625 687.35 791.334 688.64C790.028 689.947 789.382 691.544 789.382 693.431L789.382 817.393C789.382 819.296 790.028 820.829 791.334 822.007C792.641 823.2 794.238 823.781 796.126 823.781L823.825 823.781C825.712 823.781 827.31 823.2 828.616 822.007C829.907 820.829 830.568 819.28 830.568 817.393L830.568 739.247C830.568 736.65 831.327 734.924 832.875 734.101C834.408 733.278 836.602 732.859 839.441 732.859L869.625 732.859C873.174 732.859 875.545 733.101 876.723 733.569C877.901 734.053 878.853 734.988 879.562 736.408L916.506 819.522C917.441 821.426 918.57 822.603 919.877 823.071C921.184 823.555 923.136 823.781 925.733 823.781L954.852 823.781C958.159 823.781 959.821 822.474 959.821 819.877C959.821 818.457 959.337 816.925 958.401 815.263L917.248 723.26Z" fill="#ffffff" fill-rule="nonzero" opacity="1" stroke="none" vectornator:layerName="path"/>
<path d="M770.104 779.949L647.853 779.949C646.191 779.949 644.659 779.24 643.239 777.82C641.819 776.4 641.11 774.868 641.11 773.206L641.11 734.456C641.11 729.487 643.836 726.987 649.289 726.987L739.92 726.987C741.582 726.987 743.002 726.454 744.179 725.39C745.357 724.325 745.954 722.97 745.954 721.308L745.954 690.737C745.954 689.076 745.357 687.721 744.179 686.656C742.986 685.591 741.566 685.059 739.92 685.059L650.353 685.059C644.191 685.059 641.11 682.816 641.11 678.299L641.11 652.713C641.11 650.826 640.513 649.277 639.335 648.099C638.141 646.922 636.609 646.325 634.721 646.325L604.505 646.325C602.844 646.325 601.359 646.922 600.069 648.099C598.762 649.293 598.117 650.826 598.117 652.713L598.117 816.909C598.117 818.57 598.762 820.055 600.069 821.345C601.376 822.652 602.844 823.297 604.505 823.297L770.12 823.297C772.008 823.297 773.556 822.652 774.734 821.345C775.912 820.055 776.509 818.57 776.509 816.909L776.509 786.338C776.509 784.45 775.912 782.902 774.734 781.724C773.54 780.546 772.008 779.949 770.104 779.949Z" fill="#ffffff" fill-rule="nonzero" opacity="1" stroke="none" vectornator:layerName="path"/>
<path d="M604.505 618.238L769.41 618.238C771.298 618.238 772.895 617.529 774.202 616.109C775.508 614.689 776.154 613.141 776.154 611.495L776.154 580.924C776.154 579.263 775.492 577.778 774.202 576.488C772.895 575.197 771.298 574.536 769.41 574.536L604.505 574.536C602.844 574.536 601.359 575.133 600.069 576.31C598.762 577.504 598.117 579.037 598.117 580.924L598.117 611.495C598.117 613.399 598.762 614.996 600.069 616.286C601.359 617.593 602.844 618.238 604.505 618.238Z" fill="#ffffff" fill-rule="nonzero" opacity="1" stroke="none" vectornator:layerName="path"/>
<path d="M801.74 305.996L766.394 305.996C764.748 305.996 763.216 306.641 761.796 307.948C760.376 309.239 759.683 310.836 759.683 312.723L759.683 547.385C759.683 549.03 760.328 550.515 761.635 551.805C762.925 553.096 764.522 553.757 766.41 553.757L801.756 553.757C803.643 553.757 805.176 553.112 806.354 551.805C807.531 550.515 808.128 549.047 808.128 547.385L808.128 312.707C808.128 310.82 807.483 309.239 806.192 307.932C804.853 306.641 803.385 305.996 801.74 305.996Z" fill="#ffffff" fill-rule="nonzero" opacity="1" stroke="none" vectornator:layerName="path"/>
<path d="M971.065 369.316L867.931 369.316C865.188 369.751 859.107 371.413 857.864 377.737L857.864 415.761C857.897 416.084 857.929 416.422 857.929 416.761L857.929 449.832L857.864 449.832L857.864 547.692C857.864 549.256 858.477 550.676 859.72 551.902C860.946 553.144 862.462 553.757 864.269 553.757L897.921 553.757C899.712 553.757 901.164 553.144 902.293 551.902C903.406 550.676 903.971 549.272 903.971 547.692L903.971 460.512L904.019 460.512L904.019 416.761C904.019 414.777 904.761 413.035 906.245 411.486C907.73 409.953 909.52 409.179 911.65 409.179L971.065 409.179C972.13 409.179 973.082 408.743 973.921 407.856C974.76 406.985 975.195 405.872 975.195 404.565L975.195 373.913C975.195 372.591 974.776 371.494 973.921 370.622C973.066 369.751 972.114 369.316 971.065 369.316Z" fill="#ffffff" fill-rule="nonzero" opacity="1" stroke="none" vectornator:layerName="path"/>
<path d="M736.452 508.909L653.903 508.909C652.08 508.909 650.499 508.151 649.127 506.618C647.756 505.086 647.079 503.392 647.079 501.504L647.079 313.724C647.079 311.836 646.401 310.142 645.03 308.61C643.659 307.077 641.965 306.319 639.916 306.319L603.069 306.319C601.246 306.319 599.601 307.093 598.117 308.61C596.633 310.142 595.907 311.852 595.907 313.724L595.907 546.32C595.907 548.434 596.649 550.208 598.117 551.612C599.601 553.031 601.246 553.725 603.069 553.725L736.452 553.725C738.501 553.725 740.211 553.015 741.566 551.612C742.937 550.192 743.615 548.434 743.615 546.32L743.615 515.959C743.615 514.072 742.937 512.426 741.566 511.023C740.211 509.619 738.501 508.909 736.452 508.909Z" fill="#ffffff" fill-rule="nonzero" opacity="1" stroke="none" vectornator:layerName="path"/>
<path d="M1160.7 304.867L1020.62 304.867C1018.98 304.867 1017.49 305.464 1016.2 306.625C1014.91 307.803 1014.27 309.336 1014.27 311.207L1014.27 341.568C1014.27 343.456 1014.91 345.037 1016.2 346.327C1017.49 347.618 1018.96 348.263 1020.62 348.263L1043.29 348.263C1045.53 348.328 1047.45 349.07 1049.05 350.554C1050.71 352.102 1051.53 354.055 1051.53 356.41L1051.53 548.821C1051.53 551.902 1053.07 553.435 1056.15 553.435L1098.38 553.435C1099.56 553.435 1100.62 553.031 1101.58 552.192C1102.51 551.37 1103 550.24 1103 548.821L1103 356.426C1103 354.296 1103.82 352.409 1105.48 350.747C1107.08 349.15 1109 348.344 1111.26 348.279L1160.69 348.279C1162.57 348.279 1164.15 347.569 1165.44 346.166C1166.73 344.746 1167.38 343.23 1167.38 341.568L1167.38 311.207C1167.38 309.561 1166.73 308.093 1165.44 306.787C1164.19 305.512 1162.59 304.867 1160.7 304.867Z" fill="#ffffff" fill-rule="nonzero" opacity="1" stroke="none" vectornator:layerName="path"/>
<path d="M993.005 304.867L829.197 304.867C827.552 304.867 826.067 305.464 824.777 306.625C823.486 307.803 822.841 309.336 822.841 311.207L822.841 341.568C822.841 343.456 823.486 345.037 824.777 346.327C826.067 347.618 827.535 348.263 829.197 348.263L993.005 348.263C994.893 348.263 996.474 347.553 997.764 346.15C999.055 344.73 999.7 343.214 999.7 341.552L999.7 311.191C999.7 309.545 999.055 308.077 997.764 306.77C996.474 305.512 994.893 304.867 993.005 304.867Z" fill="#ffffff" fill-rule="nonzero" opacity="1" stroke="none" vectornator:layerName="path"/>
<path d="M937.929 35.698C932.202 28.8579 925.394 23.3084 917.812 18.6461C917.441 18.4203 917.038 18.1621 916.635 18.1137C916.247 18.0815 915.715 18.2105 915.457 18.4687C914.973 18.9849 914.586 19.6141 914.247 20.2432C912.343 23.8085 910.456 27.406 908.568 30.9874C892.162 61.9132 876.094 93.0325 859.461 123.862C851.557 138.51 843.926 153.303 836.182 168.032C832.536 174.953 829.229 182.035 826.39 189.311C822.325 199.732 819.211 210.396 817.808 221.527C816.178 234.401 817.388 246.935 821.97 259.115C822.534 260.6 823.147 262.084 823.857 263.503C827.713 271.199 832.682 278.103 838.683 284.266C842.958 288.67 847.959 292.074 853.218 295.187C853.654 294.897 854.105 294.752 854.315 294.429C854.864 293.59 855.315 292.671 855.783 291.767C880.062 245.677 904.342 199.587 928.605 153.497C929.218 152.351 929.766 151.174 930.331 149.996C931.202 148.173 931.993 146.302 932.928 144.511C936.897 136.945 940.575 129.25 943.656 121.264C947.754 110.697 950.916 99.9049 952.206 88.5961C953.029 81.3688 953.078 74.1738 951.981 66.9626C950.222 55.2182 945.544 44.7967 937.929 35.698Z" fill="#ffffff" fill-rule="nonzero" opacity="1" stroke="none" vectornator:layerName="path"/>
<path d="M820.647 137.171C822.486 139.284 826.1 139.284 827.955 137.138C828.616 136.38 829.133 135.493 829.617 134.622C834.198 126.249 838.78 117.876 843.313 109.488C843.99 108.229 844.587 106.89 845.071 105.535C846.201 102.454 846.233 99.3242 845.265 96.1783C844.636 94.0973 843.748 92.1291 842.716 90.2094C838.296 81.9173 833.875 73.6253 829.487 65.3171C825.696 58.1704 821.937 50.9915 818.13 43.8449C817.453 42.5704 816.727 41.3121 815.92 40.1183C814.92 38.6019 813.484 37.6339 811.661 37.4242C810.08 37.2467 808.499 37.0854 806.918 37.0693C801.707 37.0209 796.513 37.0532 791.302 37.0532L791.302 37.0532C786.237 37.0532 781.187 37.0532 776.122 37.0532C775.105 37.0532 774.089 37.0048 773.089 37.1177C772.25 37.2145 771.379 37.4403 770.588 37.763C769.443 38.2308 768.797 39.1826 768.62 40.4087C768.459 41.5864 768.572 42.7318 769.104 43.7965C769.701 44.958 770.314 46.1034 770.943 47.2327C786.317 75.2385 801.691 103.244 817.066 131.234C817.759 132.508 818.421 133.783 819.147 135.041C819.598 135.783 820.082 136.525 820.647 137.171Z" fill="#ffffff" fill-rule="nonzero" opacity="1" stroke="none" vectornator:layerName="path"/>
<path d="M1102.58 148.673C1091.43 143.398 1076.99 137.703 1059.28 131.621C1054.44 129.685 1049.08 127.362 1043.18 124.668C1033.26 120.135 1026.61 116.779 1023.27 114.618C1014.9 109.359 1010.72 103.131 1010.72 95.9686C1010.72 91.4354 1012.57 86.9506 1016.28 82.5142C1019.99 78.0939 1025.08 74.319 1031.53 71.2054C1040.14 67.866 1049.34 66.1882 1059.15 66.1882C1067.52 66.1882 1075.89 67.382 1084.27 69.7696C1091.45 71.6894 1099.93 75.3837 1109.74 80.8848C1110.93 81.6108 1112.13 81.9657 1113.32 81.9657C1114.76 81.9657 1115.84 81.6108 1116.55 80.8848L1116.9 80.5299C1116.84 80.5299 1116.81 80.5622 1116.76 80.5783L1120.84 74.7868C1127.78 64.9783 1131.84 58.7673 1133.03 56.1378C1133.28 55.6699 1133.03 54.831 1132.31 53.6211C1131.6 52.4273 1130.63 51.3465 1129.44 50.3946C1122.98 44.8935 1116.03 40.2312 1108.63 36.4079C1100.71 32.6813 1091.41 29.8742 1080.77 27.9545C1068.7 25.2604 1057.42 24.7764 1047.23 25.6153C1046.89 25.6314 1046.55 25.6314 1046.19 25.6476C1045.29 25.7444 1044.39 25.8734 1043.5 25.9863C1042.77 26.067 1042.05 26.1638 1041.32 26.2606C1041.21 26.2767 1041.1 26.2929 1040.98 26.309C1023.56 28.7288 1009.83 34.7946 1001.49 39.3601C999.7 40.328 997.99 41.3282 996.329 42.393C993.844 43.9578 992.505 44.9903 992.505 44.9903L992.505 44.9903C986.472 49.3783 981.406 54.46 977.308 60.2354C972.485 67.0271 969.275 74.4964 967.645 82.6594C966.193 87.8056 965.467 93.0809 965.467 98.4853C965.467 109.73 968.807 120.619 975.518 131.137C981.019 139.026 989.456 145.673 1000.81 151.045C1011.96 156.32 1026.4 162.015 1044.11 168.097C1048.95 170.032 1054.31 172.355 1060.21 175.05C1070.13 179.583 1076.78 182.938 1080.12 185.1C1088.49 190.359 1092.67 196.586 1092.67 203.749C1092.67 208.282 1090.82 212.767 1087.11 217.203C1083.4 221.624 1078.31 225.399 1071.86 228.512C1063.25 231.852 1054.05 233.529 1044.24 233.529C1035.87 233.529 1027.5 232.336 1019.12 229.948C1011.94 228.028 1003.46 224.334 993.651 218.833C992.457 218.107 991.263 217.752 990.069 217.752C988.633 217.752 987.553 218.107 986.843 218.833L986.488 219.188C986.552 219.188 986.585 219.156 986.633 219.139L982.552 224.931C975.615 234.739 971.549 240.95 970.355 243.58C970.113 244.048 970.355 244.887 971.081 246.097C971.791 247.29 972.759 248.371 973.953 249.323C980.406 254.824 987.359 259.486 994.764 263.31C1002.89 267.133 1012.46 270.005 1023.46 271.925C1034.47 273.844 1045.71 274.554 1057.18 274.086C1072.97 272.409 1086.96 268.037 1099.16 260.987C1111.35 253.937 1120.87 245.145 1127.68 234.61C1134.5 224.076 1137.91 212.961 1137.91 201.249C1137.91 190.004 1134.57 179.115 1127.86 168.597C1122.37 160.692 1113.95 154.061 1102.58 148.673Z" fill="#ffffff" fill-rule="nonzero" opacity="1" stroke="none" vectornator:layerName="path"/>
<path d="M728.208 148.609C717.061 143.333 702.622 137.639 684.909 131.557C680.069 129.621 674.713 127.298 668.809 124.604C658.887 120.07 652.241 116.715 648.902 114.553C640.529 109.294 636.351 103.067 636.351 95.9041C636.351 91.3709 638.206 86.8861 641.916 82.4497C645.627 78.0294 650.708 74.2544 657.161 71.1409C665.776 67.8015 674.971 66.1237 684.78 66.1237C693.153 66.1237 701.525 67.3175 709.898 69.7051C717.077 71.6249 725.563 75.3192 735.371 80.8203C736.565 81.5463 737.759 81.9012 738.953 81.9012C740.388 81.9012 741.469 81.5463 742.179 80.8203L742.534 80.4654C742.469 80.4654 742.437 80.4977 742.389 80.5138L746.47 74.7223C753.407 64.9138 757.472 58.7028 758.666 56.0732C758.908 55.6054 758.666 54.7665 757.94 53.5566C757.231 52.3628 756.263 51.2819 755.069 50.3301C748.616 44.829 741.663 40.1667 734.258 36.3433C726.127 32.52 716.561 29.6484 705.558 27.7286C694.556 25.8089 683.312 25.0991 671.842 25.5669C656.048 27.2447 642.061 31.6165 629.865 38.6664C617.669 45.7162 608.151 54.5084 601.343 65.0428C594.519 75.5773 591.115 86.6925 591.115 98.4046C591.115 109.649 594.455 120.538 601.166 131.057C606.667 138.945 615.104 145.592 626.461 150.964C637.609 156.239 652.047 161.934 669.761 168.016C674.6 169.952 679.956 172.275 685.861 174.969C695.782 179.502 702.429 182.858 705.768 185.019C714.141 190.279 718.319 196.506 718.319 203.668C718.319 208.202 716.464 212.686 712.754 217.123C709.043 221.543 703.961 225.318 697.508 228.432C688.894 231.771 679.698 233.449 669.89 233.449C661.517 233.449 653.144 232.255 644.772 229.867C637.593 227.948 629.107 224.253 619.299 218.752C618.105 218.026 616.911 217.671 615.717 217.671C614.281 217.671 613.201 218.026 612.491 218.752L612.136 219.107C612.2 219.107 612.233 219.075 612.281 219.059L608.2 224.85C601.263 234.659 597.197 240.87 596.003 243.499C595.761 243.967 596.003 244.806 596.729 246.016C597.439 247.21 598.407 248.291 599.601 249.242C606.054 254.744 613.007 259.406 620.412 263.229C628.333 266.956 637.625 269.763 648.272 271.683C660.339 274.377 671.616 274.861 681.812 274.022C682.15 274.006 682.489 274.006 682.844 273.989C683.747 273.893 684.651 273.764 685.538 273.651C686.264 273.57 686.99 273.473 687.716 273.376C687.829 273.36 687.942 273.344 688.055 273.328C705.478 270.908 719.206 264.842 727.547 260.277C729.338 259.309 731.048 258.309 732.709 257.244C735.194 255.679 736.533 254.647 736.533 254.647L736.533 254.647C742.566 250.259 747.632 245.177 751.729 239.402C756.553 232.61 759.763 225.141 761.393 216.978C762.845 211.831 763.571 206.556 763.571 201.152C763.571 189.907 760.231 179.018 753.52 168.5C747.987 160.627 739.566 153.997 728.208 148.609Z" fill="#ffffff" fill-rule="nonzero" opacity="1" stroke="none" vectornator:layerName="path"/>
<path d="M1125.05 718.114C1119.55 710.225 1111.11 703.579 1099.75 698.207C1088.61 692.931 1074.17 687.237 1056.45 681.155C1051.61 679.219 1046.26 676.896 1040.35 674.202C1030.43 669.668 1023.79 666.313 1020.45 664.151C1012.07 658.892 1007.9 652.665 1007.9 645.502C1007.9 640.969 1009.75 636.484 1013.46 632.048C1017.17 627.627 1022.25 623.852 1028.71 620.739C1037.32 617.4 1046.52 615.722 1056.32 615.722C1064.7 615.722 1073.07 616.916 1081.44 619.303C1088.62 621.223 1097.11 624.917 1106.92 630.418C1108.11 631.144 1109.3 631.499 1110.5 631.499C1111.93 631.499 1113.01 631.144 1113.72 630.418L1114.08 630.063C1114.01 630.063 1113.98 630.096 1113.93 630.112L1118.02 624.32C1124.95 614.512 1129.02 608.301 1130.21 605.671C1130.45 605.203 1130.21 604.365 1129.49 603.155C1128.78 601.961 1127.81 600.88 1126.61 599.928C1120.16 594.427 1113.21 589.765 1105.8 585.941C1097.88 582.215 1088.59 579.408 1077.94 577.488C1065.88 574.794 1054.6 574.31 1044.4 575.149C1044.06 575.165 1043.73 575.165 1043.37 575.181C1042.47 575.278 1041.56 575.407 1040.68 575.52C1039.95 575.601 1039.22 575.697 1038.5 575.794C1038.39 575.81 1038.27 575.826 1038.16 575.843C1020.74 578.262 1007.01 584.328 998.668 588.894C996.877 589.862 995.167 590.862 993.505 591.927C991.021 593.491 989.682 594.524 989.682 594.524L989.682 594.524C983.649 598.912 978.583 603.994 974.485 609.769C969.662 616.561 966.451 624.03 964.822 632.193C963.37 637.339 962.644 642.614 962.644 648.019C962.644 659.263 965.984 670.152 972.695 680.671C978.196 688.559 986.633 695.206 997.99 700.578C1009.14 705.853 1023.58 711.548 1041.29 717.63C1046.13 719.566 1051.49 721.889 1057.39 724.583C1067.31 729.116 1073.96 732.472 1077.3 734.634C1085.67 739.893 1089.85 746.12 1089.85 753.283C1089.85 757.816 1087.99 762.301 1084.28 766.737C1080.57 771.157 1075.49 774.932 1069.04 778.046C1060.42 781.385 1051.23 783.063 1041.42 783.063C1033.05 783.063 1024.67 781.869 1016.3 779.482C1009.12 777.562 1000.64 773.868 990.827 768.366C989.634 767.64 988.44 767.286 987.246 767.286C985.81 767.286 984.729 767.64 984.02 768.366L983.665 768.721C983.729 768.721 983.761 768.689 983.81 768.673L979.728 774.464C972.791 784.273 968.726 790.484 967.532 793.113C967.29 793.581 967.532 794.42 968.258 795.63C968.968 796.824 969.936 797.905 971.13 798.857C977.583 804.358 984.536 809.02 991.941 812.843C1000.07 816.667 1009.64 819.538 1020.64 821.458C1031.64 823.378 1042.89 824.088 1054.36 823.62C1070.15 821.942 1084.14 817.57 1096.33 810.52C1108.53 803.47 1118.05 794.678 1124.86 784.144C1131.68 773.609 1135.08 762.494 1135.08 750.782C1135.08 739.522 1131.74 728.632 1125.05 718.114Z" fill="#ffffff" fill-rule="nonzero" opacity="1" stroke="none" vectornator:layerName="path"/>
</g>
</g>
</svg>
